<?xml version="1.0" encoding="utf-8"?>
<!-- Generator: Adobe Illustrator 21.0.2, SVG Export Plug-In . SVG Version: 6.00 Build 0)  -->
<svg version="1.1" id="Layer_1" xmlns="http://www.w3.org/2000/svg" xmlns:xlink="http://www.w3.org/1999/xlink" x="0px" y="0px"
	 viewBox="0 0 395 385" style="enable-background:new 0 0 395 385;" xml:space="preserve">
<title>Group 4</title>
<desc>Created with Sketch.</desc>
<g id="Page-1">
	<g id="Group-4">
		<path id="Combined-Shape" d="M18,19v346.2h358.3V19H18z M1.1,0L1.1,0l392.1,0v0h1.1v383.1h-1.1v1H1.1v-1H0V0H1.1z"/>
		<path id="A" d="M167.1,283.6l-11.9-52.2h-53.9l-11.9,52.2H51L102.2,76h52.2l51.3,207.6H167.1z M148,197.3l-11-48.1
			c-0.7-2.9-2.1-10.3-4.5-22c-2.3-11.7-3.7-19.6-4.2-23.5c-1.2,8.1-2.8,17-4.7,26.8c-1.9,9.8-6.8,32-14.7,66.8H148z"/>
		<path id="Path-4" d="M263.4,284h-36.8L226,142.9c0,0,90.5-43.3,114.6,28.9c1,0.5,0,111.3,0,111.3h-33.1V173.8
			c0,0-1.3-23.2-43.2-12.7C264,161.5,263.4,284,263.4,284z"/>
	</g>
</g>
<g id="Page-1_1_">
	<g id="Group-4_1_">
		<path id="Combined-Shape_1_" d="M18,19v346.2h358.3V19H18z M1.1,0L1.1,0l392.1,0v0h1.1v383.1h-1.1v1H1.1v-1H0V0H1.1z"/>
		<path id="A_1_" d="M167.1,283.6l-11.9-52.2h-53.9l-11.9,52.2H51L102.2,76h52.2l51.3,207.6H167.1z M148,197.3l-11-48.1
			c-0.7-2.9-2.1-10.3-4.5-22c-2.3-11.7-3.7-19.6-4.2-23.5c-1.2,8.1-2.8,17-4.7,26.8c-1.9,9.8-6.8,32-14.7,66.8H148z"/>
		<path id="Path-4_1_" d="M263.4,284h-36.8L226,142.9c0,0,90.5-43.3,114.6,28.9c1,0.5,0,111.3,0,111.3h-33.1V173.8
			c0,0-1.3-23.2-43.2-12.7C264,161.5,263.4,284,263.4,284z"/>
		<path id="Combined-Shape_2_" d="M27.7,30v329.1h340.6V30H27.7z M11.6,12L11.6,12l372.7,0v0h1v364.2h-1v1H11.6v-1h-1V12H11.6z"/>
	</g>
</g>
</svg>
