<?xml version="1.0" encoding="utf-8"?>
<svg xmlns="http://www.w3.org/2000/svg" viewBox="0 0 32 32" fill="#000000"><path style="text-indent:0;text-align:start;line-height:normal;text-transform:none;block-progression:tb;-inkscape-font-specification:Sans" d="M 3 7 L 3 8 L 3 11 L 3 12 L 4 12 L 7 12 L 8 12 L 8 11 L 8 8 L 8 7 L 7 7 L 4 7 L 3 7 z M 10 7 L 10 8 L 10 11 L 10 12 L 11 12 L 14 12 L 15 12 L 15 11 L 15 8 L 15 7 L 14 7 L 11 7 L 10 7 z M 17 7 L 17 8 L 17 11 L 17 12 L 18 12 L 21 12 L 22 12 L 22 11 L 22 8 L 22 7 L 21 7 L 18 7 L 17 7 z M 24 7 L 24 8 L 24 11 L 24 12 L 25 12 L 28 12 L 29 12 L 29 11 L 29 8 L 29 7 L 28 7 L 25 7 L 24 7 z M 5 9 L 6 9 L 6 10 L 5 10 L 5 9 z M 12 9 L 13 9 L 13 10 L 12 10 L 12 9 z M 19 9 L 20 9 L 20 10 L 19 10 L 19 9 z M 26 9 L 27 9 L 27 10 L 26 10 L 26 9 z M 3 14 L 3 15 L 3 18 L 3 19 L 4 19 L 7 19 L 8 19 L 8 18 L 8 15 L 8 14 L 7 14 L 4 14 L 3 14 z M 10 14 L 10 15 L 10 18 L 10 19 L 11 19 L 14 19 L 15 19 L 15 18 L 15 15 L 15 14 L 14 14 L 11 14 L 10 14 z M 17 14 L 17 15 L 17 18 L 17 19 L 18 19 L 21 19 L 22 19 L 22 18 L 22 15 L 22 14 L 21 14 L 18 14 L 17 14 z M 24 14 L 24 15 L 24 18 L 24 19 L 25 19 L 28 19 L 29 19 L 29 18 L 29 15 L 29 14 L 28 14 L 25 14 L 24 14 z M 5 16 L 6 16 L 6 17 L 5 17 L 5 16 z M 12 16 L 13 16 L 13 17 L 12 17 L 12 16 z M 19 16 L 20 16 L 20 17 L 19 17 L 19 16 z M 26 16 L 27 16 L 27 17 L 26 17 L 26 16 z M 3 21 L 3 22 L 3 25 L 3 26 L 4 26 L 7 26 L 8 26 L 8 25 L 8 22 L 8 21 L 7 21 L 4 21 L 3 21 z M 10 21 L 10 22 L 10 25 L 10 26 L 11 26 L 14 26 L 15 26 L 15 25 L 15 22 L 15 21 L 14 21 L 11 21 L 10 21 z M 17 21 L 17 22 L 17 25 L 17 26 L 18 26 L 21 26 L 22 26 L 22 25 L 22 22 L 22 21 L 21 21 L 18 21 L 17 21 z M 24 21 L 24 22 L 24 25 L 24 26 L 25 26 L 28 26 L 29 26 L 29 25 L 29 22 L 29 21 L 28 21 L 25 21 L 24 21 z M 5 23 L 6 23 L 6 24 L 5 24 L 5 23 z M 12 23 L 13 23 L 13 24 L 12 24 L 12 23 z M 19 23 L 20 23 L 20 24 L 19 24 L 19 23 z M 26 23 L 27 23 L 27 24 L 26 24 L 26 23 z" fill="#000000"/></svg>
