<?xml version="1.0" encoding="utf-8"?>
<svg xmlns="http://www.w3.org/2000/svg" viewBox="0 0 32 32" fill="#000000"><path style="line-height:normal;text-indent:0;text-align:start;text-decoration-line:none;text-decoration-style:solid;text-decoration-color:#000;text-transform:none;block-progression:tb;isolation:auto;mix-blend-mode:normal" d="M 11.103516 4.0019531 C 10.941714 3.9952217 10.784552 3.9985193 10.632812 4.0097656 L 10.630859 4.0117188 L 10.628906 4.0117188 C 10.281586 4.0385507 9.92826 4.1281731 9.6035156 4.2929688 L 9.6015625 4.2929688 L 9.6015625 4.2949219 C 8.9143469 4.6460617 8.4944034 5.3017255 8.2734375 5.9863281 C 8.0524716 6.6709308 7.9872063 7.4295764 8.0019531 8.2597656 C 8.0201355 9.2833923 8.2564641 10.482922 8.6074219 11.734375 C 8.0068867 11.886396 7.4375717 12.059033 6.9101562 12.251953 C 5.8443143 12.641822 4.9394299 13.106823 4.2402344 13.695312 C 3.5410388 14.283802 3.0019531 15.06752 3.0019531 16 C 3.0019531 17.073993 3.5828165 17.96454 4.2832031 18.580078 C 4.9835897 19.195616 5.8248537 19.614855 6.6367188 19.931641 L 7.3632812 18.068359 C 6.6861463 17.804145 6.029879 17.452837 5.6035156 17.078125 C 5.1771522 16.703413 5.0019531 16.384007 5.0019531 16 C 5.0019531 15.84448 5.0966021 15.587151 5.5273438 15.224609 C 5.9580857 14.862068 6.6797483 14.466616 7.5976562 14.130859 C 8.0838693 13.95301 8.6296472 13.793109 9.2128906 13.650391 C 9.4634117 14.347946 9.7442556 15.038161 10.035156 15.71875 C 8.4765689 19.039262 7.9650783 22.220595 8 24.253906 C 8.023843 25.621288 8.5244574 26.838331 9.5351562 27.494141 C 10.189677 27.919305 11.024424 28.130233 11.888672 28.011719 C 12.75292 27.893205 13.63225 27.488262 14.580078 26.8125 L 13.419922 25.185547 C 12.64675 25.736785 12.043689 25.970811 11.617188 26.029297 C 11.190684 26.087787 10.926479 26.014197 10.625 25.818359 L 10.625 25.816406 L 10.623047 25.816406 C 10.304991 25.610284 10.016709 25.144783 10 24.220703 L 10 24.21875 C 9.9768506 22.857702 10.286078 20.622855 11.177734 18.181641 C 11.339358 18.501996 11.501329 18.821915 11.660156 19.117188 L 11.658203 19.117188 C 12.721207 21.095281 14.325342 23.461217 16 25.265625 C 16.837329 26.167829 17.68366 26.93158 18.5625 27.4375 C 19.412833 27.92701 20.424217 28.189383 21.357422 27.765625 C 22.184081 27.480935 22.695351 26.746535 22.945312 25.951172 C 23.205047 25.124716 23.271377 24.154588 23.197266 23.058594 C 23.049043 20.866606 22.308402 18.172718 20.880859 15.525391 L 19.119141 16.474609 C 20.412598 18.873282 21.078348 21.348097 21.203125 23.193359 C 21.265515 24.11599 21.184995 24.880988 21.037109 25.351562 C 20.889219 25.822139 20.742844 25.894545 20.722656 25.900391 L 20.630859 25.925781 L 20.546875 25.96875 C 20.435531 26.02546 20.149675 26.04227 19.560547 25.703125 C 18.971418 25.363983 18.221843 24.717843 17.466797 23.904297 C 15.956705 22.277205 14.397918 19.989828 13.419922 18.169922 C 13.035132 17.454564 12.635238 16.620367 12.25 15.738281 C 12.522605 15.216251 12.820185 14.695152 13.154297 14.179688 C 13.408011 13.789002 13.664014 13.414244 13.919922 13.037109 C 14.215374 13.025983 14.502972 13.000995 14.802734 13 C 15.374329 12.9981 15.962052 13.013732 16.5625 13.044922 C 19.748438 13.212245 22.531346 13.843179 24.416016 14.669922 C 25.35835 15.083293 26.071062 15.548455 26.490234 15.96875 C 26.909406 16.389045 27.015054 16.697935 27.001953 16.947266 C 26.998453 17.013996 26.883963 17.29939 26.404297 17.621094 C 25.924631 17.942798 25.154978 18.251915 24.226562 18.416016 L 24.574219 20.384766 C 25.727803 20.180866 26.731744 19.808296 27.517578 19.28125 C 28.303412 18.754204 28.947522 18.023008 28.998047 17.052734 C 29.047947 16.103065 28.583734 15.23594 27.90625 14.556641 C 27.228766 13.877342 26.31754 13.319894 25.21875 12.837891 C 23.02117 11.873886 20.049077 11.226505 16.666016 11.048828 C 16.221216 11.025722 15.785963 11.020276 15.349609 11.013672 C 16.118306 9.9847633 16.877729 9.0583557 17.599609 8.2929688 C 19.007204 6.800542 20.318148 6.0247113 20.917969 6.0019531 C 21.178964 5.9921231 21.329314 6.0405671 21.451172 6.1191406 C 21.710823 6.2878668 22.050697 6.6972254 22.03125 7.390625 C 22.01659 7.9240771 21.787294 8.9572031 21.503906 9.5917969 L 23.330078 10.408203 C 23.748691 9.470844 24.003952 8.3698135 24.029297 7.4472656 C 24.067849 6.0726653 23.389365 4.9926801 22.541016 4.4414062 C 22.033092 4.1124649 21.42989 3.9798132 20.841797 4.0019531 C 19.148618 4.066195 17.690437 5.2808486 16.144531 6.9199219 C 15.052317 8.0779611 13.938097 9.5115282 12.837891 11.080078 C 12.076247 11.134891 11.333241 11.216079 10.621094 11.328125 C 10.256903 10.102243 10.01565 8.9957245 10.001953 8.2246094 C 9.9897001 7.5347986 10.060203 6.9637567 10.177734 6.5996094 C 10.295268 6.235462 10.418025 6.1240383 10.511719 6.0761719 C 10.586959 6.0384219 10.664812 6.0151504 10.779297 6.0058594 C 11.31938 5.9658304 12.421302 6.1969685 13.484375 7.1894531 L 14.849609 5.7265625 C 13.592298 4.5527365 12.236124 4.0490729 11.103516 4.0019531 z M 11.380859 13.253906 C 11.354394 13.295533 11.332732 13.337248 11.306641 13.378906 C 11.293036 13.341883 11.279092 13.304563 11.265625 13.267578 C 11.303194 13.262186 11.3431 13.259143 11.380859 13.253906 z M 16 14 C 14.895 14 14 14.895 14 16 C 14 17.105 14.895 18 16 18 C 17.105 18 18 17.105 18 16 C 18 14.895 17.105 14 16 14 z" color="#000" font-weight="400" font-family="sans-serif" white-space="normal" overflow="visible" fill="#000000"/></svg>
