<?xml version="1.0" encoding="utf-8"?>
<svg xmlns="http://www.w3.org/2000/svg" viewBox="0 0 32 32" fill="#000000"><path style="text-indent:0;text-align:start;line-height:normal;text-transform:none;block-progression:tb;-inkscape-font-specification:Sans" d="M 10 4 C 8.3549904 4 7 5.3549904 7 7 C 7 8.292018 7.8442552 9.3942821 9 9.8125 L 9 10 L 9 12.96875 L 9 22.1875 C 7.8442551 22.605718 7 23.707983 7 25 C 7 26.645009 8.3549901 28 10 28 C 11.64501 28 13 26.64501 13 25 C 13 23.707982 12.155745 22.605718 11 22.1875 L 11 17.875 C 12.280601 19.188125 14.07113 20 16.03125 20 L 19.1875 20 C 19.605718 21.155745 20.707982 22 22 22 C 23.64501 22 25 20.64501 25 19 C 25 17.35499 23.64501 16 22 16 C 20.707982 16 19.605718 16.844255 19.1875 18 L 16.03125 18 C 13.265503 18 11 15.734497 11 12.96875 L 11 10 L 11 9.8125 C 12.155745 9.3942822 13 8.2920182 13 7 C 13 5.3549901 11.645009 4 10 4 z M 10 6 C 10.564129 6 11 6.4358709 11 7 C 11 7.5641291 10.564129 8 10 8 C 9.4358706 8 9 7.5641294 9 7 C 9 6.4358706 9.4358706 6 10 6 z M 22 18 C 22.564128 18 23 18.435872 23 19 C 23 19.564128 22.564128 20 22 20 C 21.435872 20 21 19.564128 21 19 C 21 18.435872 21.435872 18 22 18 z M 10 24 C 10.564128 24 11 24.435872 11 25 C 11 25.564128 10.564128 26 10 26 C 9.4358709 26 9 25.564129 9 25 C 9 24.435871 9.4358709 24 10 24 z" overflow="visible" font-family="Sans" fill="#000000"/></svg>
