<?xml version="1.0" encoding="UTF-8"?>
<svg xmlns="http://www.w3.org/2000/svg" xmlns:xlink="http://www.w3.org/1999/xlink" viewBox="0 0 32 32" version="1.1" fill="#000000"><g id="surface1" fill="#000000"><path style=" " d="M 15 2 L 15 5.03125 C 12.890625 5.222656 10.976563 6.035156 9.375 7.25 L 10.78125 8.6875 C 11.996094 7.820313 13.441406 7.238281 15 7.0625 L 15 15 L 7.0625 15 C 7.238281 13.441406 7.820313 11.996094 8.6875 10.78125 L 7.25 9.375 C 6.035156 10.976563 5.222656 12.890625 5.03125 15 L 2 15 L 2 17 L 5.03125 17 C 5.222656 19.109375 6.035156 21.023438 7.25 22.625 L 8.6875 21.21875 C 7.820313 20.003906 7.238281 18.558594 7.0625 17 L 15 17 L 15 24.9375 C 13.441406 24.761719 11.996094 24.179688 10.78125 23.3125 L 9.375 24.75 C 10.976563 25.964844 12.890625 26.777344 15 26.96875 L 15 30 L 17 30 L 17 26.96875 C 19.109375 26.777344 21.023438 25.964844 22.625 24.75 L 21.21875 23.3125 C 20.003906 24.179688 18.558594 24.761719 17 24.9375 L 17 17 L 24.9375 17 C 24.761719 18.558594 24.179688 20.003906 23.3125 21.21875 L 24.75 22.625 C 25.964844 21.023438 26.777344 19.109375 26.96875 17 L 30 17 L 30 15 L 26.96875 15 C 26.777344 12.890625 25.964844 10.976563 24.75 9.375 L 23.3125 10.78125 C 24.179688 11.996094 24.761719 13.441406 24.9375 15 L 17 15 L 17 7.0625 C 18.558594 7.238281 20.003906 7.820313 21.21875 8.6875 L 22.625 7.25 C 21.023438 6.035156 19.109375 5.222656 17 5.03125 L 17 2 Z " fill="#000000"/></g></svg>
