<?xml version="1.0" encoding="utf-8"?>
<svg xmlns="http://www.w3.org/2000/svg" viewBox="0 0 32 32" fill="#000000"><path style="text-indent:0;text-align:start;line-height:normal;text-transform:none;block-progression:tb;-inkscape-font-specification:Sans" d="M 16 4 C 9.3844277 4 4 9.3844277 4 16 C 4 22.615572 9.3844277 28 16 28 C 22.615572 28 28 22.615572 28 16 C 28 9.3844277 22.615572 4 16 4 z M 16 6 C 21.534692 6 26 10.465308 26 16 C 26 21.534692 21.534692 26 16 26 C 10.465308 26 6 21.534692 6 16 C 6 10.465308 10.465308 6 16 6 z M 16 10 C 13.032 10 10.57275 12.167 10.09375 15 L 12.15625 15 C 12.60325 13.279 14.141 12 16 12 C 17.105575 12 18.091941 12.458828 18.8125 13.1875 L 17 15 L 19.84375 15 L 21.90625 15 L 22 15 L 22 10 L 20.21875 11.78125 C 19.134272 10.695016 17.654042 10 16 10 z M 10 17 L 10 22 L 11.78125 20.21875 C 12.865728 21.304984 14.345958 22 16 22 C 18.968 22 21.42725 19.833 21.90625 17 L 19.84375 17 C 19.39675 18.721 17.859 20 16 20 C 14.894425 20 13.908059 19.541172 13.1875 18.8125 L 15 17 L 10 17 z" color="#000" overflow="visible" font-family="Sans" fill="#000000"/></svg>
