<?xml version="1.0" encoding="utf-8"?>
<svg xmlns="http://www.w3.org/2000/svg" viewBox="0 0 32 32" fill="#000000"><path style="text-indent:0;text-align:start;line-height:normal;text-transform:none;block-progression:tb;-inkscape-font-specification:Bitstream Vera Sans" d="M 16 3 C 8.8321429 3 3 8.8321429 3 16 C 3 23.167857 8.8321429 29 16 29 C 23.167857 29 29 23.167857 29 16 C 29 8.8321429 23.167857 3 16 3 z M 16 5 C 22.086977 5 27 9.9130231 27 16 C 27 22.086977 22.086977 27 16 27 C 9.9130231 27 5 22.086977 5 16 C 5 9.9130231 9.9130231 5 16 5 z M 16 8 C 13.250421 8 11 10.250421 11 13 C 11 14.515649 11.706976 15.862268 12.78125 16.78125 C 10.533165 17.948498 9 20.301065 9 23 L 11 23 C 11 20.226334 13.226334 18 16 18 C 18.773666 18 21 20.226334 21 23 L 23 23 C 23 20.301065 21.466835 17.948498 19.21875 16.78125 C 20.293024 15.862268 21 14.515649 21 13 C 21 10.250421 18.749579 8 16 8 z M 16 10 C 17.668699 10 19 11.331301 19 13 C 19 14.668699 17.668699 16 16 16 C 14.331301 16 13 14.668699 13 13 C 13 11.331301 14.331301 10 16 10 z" color="#000" overflow="visible" font-family="Bitstream Vera Sans" fill="#000000"/></svg>
