<?xml version="1.0" encoding="UTF-8"?>
<svg xmlns="http://www.w3.org/2000/svg" xmlns:xlink="http://www.w3.org/1999/xlink" viewBox="0 0 32 32" version="1.1" fill="#000000"><g id="surface1" fill="#000000"><path style=" " d="M 6.21875 6 L 3 18.875 L 3 26 L 29 26 L 29 18.875 L 25.78125 6 Z M 7.78125 8 L 24.21875 8 L 26.71875 18 L 5.28125 18 Z M 15 10 C 13.6875 10 12.59375 10.859375 12.1875 12.03125 C 12.128906 12.027344 12.0625 12 12 12 C 10.894531 12 10 12.894531 10 14 C 10 15.105469 10.894531 16 12 16 L 20.5 16 C 21.328125 16 22 15.328125 22 14.5 C 22 13.671875 21.328125 13 20.5 13 C 20.253906 13 20.019531 13.082031 19.8125 13.1875 C 19.496094 12.496094 18.808594 12 18 12 C 17.9375 12 17.871094 12.027344 17.8125 12.03125 C 17.40625 10.859375 16.3125 10 15 10 Z M 5 20 L 27 20 L 27 24 L 5 24 Z M 24 21 C 23.449219 21 23 21.449219 23 22 C 23 22.550781 23.449219 23 24 23 C 24.550781 23 25 22.550781 25 22 C 25 21.449219 24.550781 21 24 21 Z " fill="#000000"/></g></svg>
