<?xml version="1.0" encoding="utf-8"?>
<svg xmlns="http://www.w3.org/2000/svg" viewBox="0 0 32 32" fill="#000000"><path style="text-indent:0;text-align:start;line-height:normal;text-transform:none;block-progression:tb;-inkscape-font-specification:Bitstream Vera Sans" d="M 5 5 L 5 6 L 5 26 L 5 27 L 6 27 L 26 27 L 27 27 L 27 26 L 27 6 L 27 5 L 26 5 L 6 5 L 5 5 z M 7 7 L 25 7 L 25 25 L 7 25 L 7 7 z M 15.59375 11 L 15.4375 11.78125 C 15.4375 11.78125 15.272119 12.35635 14.875 12.9375 C 14.477881 13.51865 13.97963 14 13 14 L 13 16 C 14.376344 16 15.318862 15.324574 16 14.59375 L 16 21 L 18 21 L 18 12 L 18 11 L 17 11 L 16.40625 11 L 15.59375 11 z" color="#000" overflow="visible" font-family="Bitstream Vera Sans" fill="#000000"/></svg>
