<?xml version="1.0" encoding="utf-8"?>
<svg xmlns="http://www.w3.org/2000/svg" viewBox="0 0 32 32" fill="#000000"><path d="M 16 4 C 11.041484 4 7 8.0414839 7 13 C 7 15.856337 8.437568 17.875912 9.75 19.3125 C 10.406216 20.030794 11.053594 20.644277 11.46875 21.125 C 11.883906 21.605723 12 21.916208 12 22 A 1.0001 1.0001 0 0 0 12 22.09375 L 12 25 C 12 26.093063 12.906937 27 14 27 L 15 28 L 17 28 L 18 27 C 19.093063 27 20 26.093063 20 25 L 20 22.3125 A 1.0001 1.0001 0 0 0 20 22.15625 C 20 22.020203 20.147861 21.656609 20.5625 21.15625 C 20.977139 20.655891 21.596455 20.042248 22.25 19.3125 C 23.55709 17.853004 25 15.8342 25 13 C 25 8.0414839 20.958516 4 16 4 z M 6 6 C 5.4477153 6 5 6.4477153 5 7 C 5 7.5522847 5.4477153 8 6 8 C 6.5522847 8 7 7.5522847 7 7 C 7 6.4477153 6.5522847 6 6 6 z M 16 6 C 19.877484 6 23 9.1225161 23 13 C 23 15.1678 21.94291 16.667996 20.75 18 C 20.153545 18.666002 19.522861 19.244046 19 19.875 C 18.718165 20.2151 18.468951 20.58835 18.28125 21 L 13.78125 21 C 13.584476 20.553541 13.281386 20.174512 12.96875 19.8125 C 12.446406 19.20766 11.843784 18.618706 11.25 17.96875 C 10.062432 16.668838 9 15.196663 9 13 C 9 9.1225161 12.122516 6 16 6 z M 26 6 C 25.447715 6 25 6.4477153 25 7 C 25 7.5522847 25.447715 8 26 8 C 26.552285 8 27 7.5522847 27 7 C 27 6.4477153 26.552285 6 26 6 z M 4 12 C 3.4477153 12 3 12.447715 3 13 C 3 13.552285 3.4477153 14 4 14 C 4.5522847 14 5 13.552285 5 13 C 5 12.447715 4.5522847 12 4 12 z M 28 12 C 27.447715 12 27 12.447715 27 13 C 27 13.552285 27.447715 14 28 14 C 28.552285 14 29 13.552285 29 13 C 29 12.447715 28.552285 12 28 12 z M 6 18 C 5.4477153 18 5 18.447715 5 19 C 5 19.552285 5.4477153 20 6 20 C 6.5522847 20 7 19.552285 7 19 C 7 18.447715 6.5522847 18 6 18 z M 26 18 C 25.447715 18 25 18.447715 25 19 C 25 19.552285 25.447715 20 26 20 C 26.552285 20 27 19.552285 27 19 C 27 18.447715 26.552285 18 26 18 z M 14 23 L 18 23 L 18 25 L 14 25 L 14 23 z" fill="#000000"/></svg>
