<?xml version="1.0" encoding="utf-8"?>
<svg xmlns="http://www.w3.org/2000/svg" viewBox="0 0 32 32" fill="#000000"><path style="text-indent:0;text-align:start;line-height:normal;text-transform:none;block-progression:tb;-inkscape-font-specification:Sans" d="M 15 3 L 15 6.1875 C 13.844255 6.6057178 13 7.7079818 13 9 C 13 9.8067806 13.317543 10.552119 13.84375 11.09375 L 10.21875 19 L 6 19 L 6 21 L 9.28125 21 L 5.96875 28.1875 L 7.78125 29.03125 L 11.46875 21 L 15 21 L 15 23 L 17 23 L 17 21 L 20.5 21 L 24.1875 29.03125 L 26 28.21875 L 22.6875 21 L 26 21 L 26 19 L 21.78125 19 L 18.15625 11.09375 C 18.682457 10.552119 19 9.8067806 19 9 C 19 7.7079818 18.155745 6.6057178 17 6.1875 L 17 3 L 15 3 z M 16 8 C 16.564129 8 17 8.4358709 17 9 C 17 9.5641283 16.564128 10 16 10 C 15.435872 10 15 9.5641283 15 9 C 15 8.4358709 15.435871 8 16 8 z M 15.65625 11.96875 C 15.771688 11.982498 15.881131 12 16 12 C 16.118869 12 16.228312 11.982498 16.34375 11.96875 L 19.59375 19 L 17 19 L 17 17 L 15 17 L 15 19 L 12.40625 19 L 15.65625 11.96875 z" fill="#000000"/></svg>
