<?xml version="1.0" encoding="UTF-8"?>
<svg xmlns="http://www.w3.org/2000/svg" xmlns:xlink="http://www.w3.org/1999/xlink" viewBox="0 0 32 32" version="1.1" fill="#000000"><g id="surface1" fill="#000000"><path style=" " d="M 16 1.8125 L 15.4375 2.15625 L 3.4375 10.15625 L 3 10.46875 L 3 28 L 29 28 L 29 10.46875 L 28.5625 10.15625 L 16.5625 2.15625 Z M 16 4.21875 L 26.25 11.0625 L 17 18 L 17 10.9375 L 19.28125 13.21875 L 20.71875 11.78125 L 16.71875 7.78125 L 16 7.09375 L 15.28125 7.78125 L 11.28125 11.78125 L 12.71875 13.21875 L 15 10.9375 L 15 18 L 5.75 11.0625 Z M 5 13 L 15.40625 20.8125 L 16 21.25 L 16.59375 20.8125 L 27 13 L 27 26 L 5 26 Z " fill="#000000"/></g></svg>
