<?xml version="1.0" encoding="utf-8"?>
<svg xmlns="http://www.w3.org/2000/svg" viewBox="0 0 32 32" fill="#000000"><path style="text-indent:0;text-align:start;line-height:normal;text-transform:none;block-progression:tb;-inkscape-font-specification:Bitstream Vera Sans" d="M 6 3 L 6 4 L 6 10 L 8 10 L 8 5 L 24 5 L 24 10 L 26 10 L 26 4 L 26 3 L 25 3 L 7 3 L 6 3 z M 9 12 L 9 14 L 10 14 L 10 20 L 12 20 L 12 14 L 13 14 L 13 12 L 9 12 z M 14 12 L 14 14 L 15 14 L 15 20 L 17 20 L 17 14 L 18 14 L 18 12 L 14 12 z M 19 12 L 19 13 L 19 20 L 21 20 L 21 17 L 23 17 L 23 15 L 21 15 L 21 14 L 24 14 L 24 12 L 20 12 L 19 12 z M 6 22 L 6 28 L 6 29 L 7 29 L 25 29 L 26 29 L 26 28 L 26 22 L 24 22 L 24 27 L 8 27 L 8 22 L 6 22 z" fill="#000000"/></svg>
