<?xml version="1.0" encoding="utf-8"?>
<svg xmlns="http://www.w3.org/2000/svg" viewBox="0 0 32 32" fill="#000000"><path style="text-indent:0;text-align:start;line-height:normal;text-transform:none;block-progression:tb;-inkscape-font-specification:Bitstream Vera Sans" d="M 6 3 L 6 4 L 6 10 L 8 10 L 8 5 L 24 5 L 24 10 L 26 10 L 26 4 L 26 3 L 25 3 L 7 3 L 6 3 z M 10 12 L 10 17.5 C 10 17.716667 9.7166667 18 9.5 18 C 9.2833333 18 9 17.716667 9 17.5 L 9 17 L 7 17 L 7 17.5 C 7 18.883333 8.1166667 20 9.5 20 C 10.883333 20 12 18.883333 12 17.5 L 12 12 L 10 12 z M 14 12 L 14 13 L 14 20 L 16 20 L 16 18 C 17.645455 18 19 16.645455 19 15 C 19 13.354545 17.645455 12 16 12 L 15 12 L 14 12 z M 22.5 12 C 21.116667 12 20 13.116667 20 14.5 L 20 17.5 C 20 18.883333 21.116667 20 22.5 20 L 24 20 L 25 20 L 25 19 L 25 17 L 25 16 L 24 16 L 23 16 L 23 17 L 23 18 L 22.5 18 C 22.283333 18 22 17.716667 22 17.5 L 22 14.5 C 22 14.283333 22.283333 14 22.5 14 C 22.716667 14 23 14.283333 23 14.5 L 23 15 L 25 15 L 25 14.5 C 25 13.116667 23.883333 12 22.5 12 z M 16 14 C 16.554545 14 17 14.445455 17 15 C 17 15.554545 16.554545 16 16 16 L 16 14 z M 6 22 L 6 28 L 6 29 L 7 29 L 25 29 L 26 29 L 26 28 L 26 22 L 24 22 L 24 27 L 8 27 L 8 22 L 6 22 z" color="#000" overflow="visible" font-family="Bitstream Vera Sans" fill="#000000"/></svg>
