<?xml version="1.0" encoding="utf-8"?>
<svg xmlns="http://www.w3.org/2000/svg" viewBox="0 0 32 32" fill="#000000"><path style="text-indent:0;text-align:start;line-height:normal;text-transform:none;block-progression:tb;-inkscape-font-specification:Bitstream Vera Sans" d="M 6 4 L 6 5 L 6 27 L 6 28 L 7 28 L 25 28 L 26 28 L 26 27 L 26 5 L 26 4 L 25 4 L 7 4 L 6 4 z M 8 6 L 24 6 L 24 11 L 8 11 L 8 6 z M 14 8 L 14 10 L 18 10 L 18 8 L 14 8 z M 8 13 L 24 13 L 24 19 L 8 19 L 8 13 z M 14 15 L 14 17 L 18 17 L 18 15 L 14 15 z M 8 21 L 24 21 L 24 26 L 8 26 L 8 21 z M 14 22 L 14 24 L 18 24 L 18 22 L 14 22 z" fill="#000000"/></svg>
