<?xml version="1.0" encoding="utf-8"?>
<svg xmlns="http://www.w3.org/2000/svg" viewBox="0 0 32 32" fill="#000000"><path style="text-indent:0;text-align:start;line-height:normal;text-transform:none;block-progression:tb;-inkscape-font-specification:Bitstream Vera Sans" d="M 6 3 L 6 4 L 6 10 L 8 10 L 8 5 L 24 5 L 24 10 L 26 10 L 26 4 L 26 3 L 25 3 L 7 3 L 6 3 z M 2 12 L 2 13 L 2 13.15625 L 2.03125 13.3125 L 3.9375 19.3125 L 4.15625 20 L 4.90625 20 L 5.09375 20 L 5.84375 20 L 6.0625 19.28125 L 6.5 17.78125 L 6.9375 19.28125 L 7.15625 20 L 7.90625 20 L 8.09375 20 L 8.84375 20 L 9.0625 19.3125 L 10.96875 13.3125 L 11 13.15625 L 11 13 L 11 12 L 9 12 L 9 12.78125 L 8.03125 15.84375 L 7.5625 14.21875 L 7.34375 13.5 L 6.59375 13.5 L 6.40625 13.5 L 5.65625 13.5 L 5.4375 14.21875 L 4.96875 15.84375 L 4 12.78125 L 4 12 L 2 12 z M 14.5 12 C 13.116667 12 12 13.116667 12 14.5 L 12 17.5 C 12 18.883333 13.116667 20 14.5 20 C 15.883333 20 17 18.883333 17 17.5 L 17 14.5 C 17 13.116667 15.883333 12 14.5 12 z M 18 12 L 18 13 L 18 20 L 20 20 L 20 17 L 22 17 L 22 15 L 20 15 L 20 14 L 23 14 L 23 12 L 19 12 L 18 12 z M 24 12 L 24 13 L 24 20 L 26 20 L 26 17 L 28 17 L 28 15 L 26 15 L 26 14 L 29 14 L 29 12 L 25 12 L 24 12 z M 14.5 14 C 14.716667 14 15 14.283333 15 14.5 L 15 17.5 C 15 17.716667 14.716667 18 14.5 18 C 14.283333 18 14 17.716667 14 17.5 L 14 14.5 C 14 14.283333 14.283333 14 14.5 14 z M 6 22 L 6 28 L 6 29 L 7 29 L 25 29 L 26 29 L 26 28 L 26 22 L 24 22 L 24 27 L 8 27 L 8 22 L 6 22 z" fill="#000000"/></svg>
