<?xml version="1.0" encoding="utf-8"?>
<svg xmlns="http://www.w3.org/2000/svg" viewBox="0 0 32 32" fill="#000000"><path style="text-indent:0;text-align:start;line-height:normal;text-transform:none;block-progression:tb;-inkscape-font-specification:Bitstream Vera Sans" d="M 6 3 L 6 4 L 6 10 L 8 10 L 8 5 L 24 5 L 24 10 L 26 10 L 26 4 L 26 3 L 25 3 L 7 3 L 6 3 z M 10.5 12 C 9.1166667 12 8 13.116667 8 14.5 L 8 17.5 C 8 18.883333 9.1166667 20 10.5 20 C 11.883333 20 13 18.883333 13 17.5 L 13 14.5 C 13 13.116667 11.883333 12 10.5 12 z M 14 12 L 14 14 L 15 14 L 15 20 L 17 20 L 17 14 L 18 14 L 18 12 L 14 12 z M 19 12 L 19 13 L 19 20 L 21 20 L 21 17 L 23 17 L 23 15 L 21 15 L 21 14 L 24 14 L 24 12 L 20 12 L 19 12 z M 10.5 14 C 10.716667 14 11 14.283333 11 14.5 L 11 17.5 C 11 17.716667 10.716667 18 10.5 18 C 10.283333 18 10 17.716667 10 17.5 L 10 14.5 C 10 14.283333 10.283333 14 10.5 14 z M 6 22 L 6 28 L 6 29 L 7 29 L 25 29 L 26 29 L 26 28 L 26 22 L 24 22 L 24 27 L 8 27 L 8 22 L 6 22 z" fill="#000000"/></svg>
