<?xml version="1.0" encoding="utf-8"?>
<svg xmlns="http://www.w3.org/2000/svg" viewBox="0 0 50 50" fill="#000000"><path d="M 24.5 2 C 21.467 2 19 4.468 19 7.5 C 19 10.532 21.467 13 24.5 13 C 27.533 13 30 10.532 30 7.5 C 30 4.468 27.533 2 24.5 2 z M 15 16 C 14.448 16 14 16.447 14 17 L 14 23 C 14 23.553 14.448 24 15 24 L 20 24 L 20 40 L 15 40 C 14.448 40 14 40.447 14 41 L 14 47 C 14 47.553 14.448 48 15 48 L 35 48 C 35.552 48 36 47.553 36 47 L 36 41 C 36 40.447 35.552 40 35 40 L 30 40 L 30 17 C 30 16.447 29.552 16 29 16 L 15 16 z" fill="#000000"/></svg>
