<?xml version="1.0" encoding="utf-8"?>
<svg xmlns="http://www.w3.org/2000/svg" viewBox="0 0 32 32" fill="#000000"><path d="M 15 2 L 15 5.03125 C 12.889586 5.221865 10.974633 6.034244 9.375 7.25 L 10.78125 8.6875 C 11.997428 7.8216338 13.442912 7.2367072 15 7.0625 L 15 15 L 7.0625 15 C 7.2367072 13.442912 7.8216338 11.997428 8.6875 10.78125 L 7.25 9.375 C 6.034244 10.974633 5.221865 12.889586 5.03125 15 L 2 15 L 2 17 L 5.03125 17 C 5.221865 19.110414 6.034244 21.025367 7.25 22.625 L 8.6875 21.21875 C 7.8216338 20.002572 7.2367072 18.557088 7.0625 17 L 15 17 L 15 24.9375 C 13.442912 24.763293 11.997428 24.178366 10.78125 23.3125 L 9.375 24.75 C 10.9755 25.964889 12.889571 26.77815 15 26.96875 L 15 30 L 17 30 L 17 26.96875 C 19.110414 26.778135 21.025367 25.965756 22.625 24.75 L 21.21875 23.3125 C 20.002572 24.178366 18.557088 24.763293 17 24.9375 L 17 17 L 24.9375 17 C 24.763293 18.557088 24.178366 20.002572 23.3125 21.21875 L 24.75 22.625 C 25.964889 21.0245 26.77815 19.110429 26.96875 17 L 30 17 L 30 15 L 26.96875 15 C 26.778135 12.889586 25.965756 10.974633 24.75 9.375 L 23.3125 10.78125 C 24.179192 11.996602 24.763268 13.442937 24.9375 15 L 17 15 L 17 7.0625 C 18.557088 7.2367072 20.002572 7.8216338 21.21875 8.6875 L 22.625 7.25 C 21.0245 6.0351106 19.110429 5.2218496 17 5.03125 L 17 2 L 15 2 z" fill="#000000"/></svg>
