<?xml version="1.0" encoding="utf-8"?>
<svg xmlns="http://www.w3.org/2000/svg" viewBox="0 0 32 32" fill="#000000"><path style="text-indent:0;text-align:start;line-height:normal;text-transform:none;block-progression:tb;-inkscape-font-specification:Bitstream Vera Sans" d="M 5 5 L 5 6 L 5 26 L 5 27 L 6 27 L 26 27 L 27 27 L 27 26 L 27 6 L 27 5 L 26 5 L 6 5 L 5 5 z M 7 7 L 17.5625 7 L 7 17.5625 L 7 7 z M 20.4375 7 L 25 7 L 25 11.5625 L 11.5625 25 L 7 25 L 7 20.4375 L 9.28125 22.71875 L 10.71875 21.28125 L 8.4375 19 L 10 17.4375 L 11.28125 18.71875 L 12.71875 17.28125 L 11.4375 16 L 13 14.4375 L 15.28125 16.71875 L 16.71875 15.28125 L 14.4375 13 L 16 11.4375 L 17.28125 12.71875 L 18.71875 11.28125 L 17.4375 10 L 19 8.4375 L 21.28125 10.71875 L 22.71875 9.28125 L 20.4375 7 z M 25 14.4375 L 25 25 L 14.4375 25 L 25 14.4375 z" fill="#000000"/></svg>
