<?xml version="1.0" encoding="utf-8"?>
<svg xmlns="http://www.w3.org/2000/svg" viewBox="0 0 32 32" fill="#000000"><path style="text-indent:0;text-align:start;line-height:normal;text-transform:none;block-progression:tb;-inkscape-font-specification:Bitstream Vera Sans" d="M 8 4 L 8 6 L 24 6 L 24 4 L 8 4 z M 9 7 C 8.4477153 7 8 7.4477153 8 8 C 8 8.5522847 8.4477153 9 9 9 C 9.5522847 9 10 8.5522847 10 8 C 10 7.4477153 9.5522847 7 9 7 z M 16 7 L 13 11 L 15 11 L 15 21 L 13 21 L 16 25 L 19 21 L 17 21 L 17 11 L 19 11 L 16 7 z M 23 7 C 22.447715 7 22 7.4477153 22 8 C 22 8.5522847 22.447715 9 23 9 C 23.552285 9 24 8.5522847 24 8 C 24 7.4477153 23.552285 7 23 7 z M 9 11 C 8.4477153 11 8 11.447715 8 12 C 8 12.552285 8.4477153 13 9 13 C 9.5522847 13 10 12.552285 10 12 C 10 11.447715 9.5522847 11 9 11 z M 23 11 C 22.447715 11 22 11.447715 22 12 C 22 12.552285 22.447715 13 23 13 C 23.552285 13 24 12.552285 24 12 C 24 11.447715 23.552285 11 23 11 z M 9 15 C 8.4477153 15 8 15.447715 8 16 C 8 16.552285 8.4477153 17 9 17 C 9.5522847 17 10 16.552285 10 16 C 10 15.447715 9.5522847 15 9 15 z M 23 15 C 22.447715 15 22 15.447715 22 16 C 22 16.552285 22.447715 17 23 17 C 23.552285 17 24 16.552285 24 16 C 24 15.447715 23.552285 15 23 15 z M 9 19 C 8.4477153 19 8 19.447715 8 20 C 8 20.552285 8.4477153 21 9 21 C 9.5522847 21 10 20.552285 10 20 C 10 19.447715 9.5522847 19 9 19 z M 23 19 C 22.447715 19 22 19.447715 22 20 C 22 20.552285 22.447715 21 23 21 C 23.552285 21 24 20.552285 24 20 C 24 19.447715 23.552285 19 23 19 z M 9 23 C 8.4477153 23 8 23.447715 8 24 C 8 24.552285 8.4477153 25 9 25 C 9.5522847 25 10 24.552285 10 24 C 10 23.447715 9.5522847 23 9 23 z M 23 23 C 22.447715 23 22 23.447715 22 24 C 22 24.552285 22.447715 25 23 25 C 23.552285 25 24 24.552285 24 24 C 24 23.447715 23.552285 23 23 23 z M 8 26 L 8 28 L 24 28 L 24 26 L 8 26 z" fill="#000000"/></svg>
