<?xml version="1.0" encoding="utf-8"?>
<svg xmlns="http://www.w3.org/2000/svg" viewBox="0 0 32 32" fill="#000000"><path style="text-indent:0;text-align:start;line-height:normal;text-transform:none;block-progression:tb;-inkscape-font-specification:Sans" d="M 15 6 L 15 9 L 8 9 C 6.9069372 9 6 9.9069372 6 11 L 6 13 L 8 13 L 8 11 L 24 11 L 24 13 L 26 13 L 26 11 C 26 9.9069372 25.093063 9 24 9 L 17 9 L 17 6 L 15 6 z M 3 14 L 3 15 L 3 25 L 3 26 L 4 26 L 28 26 L 29 26 L 29 25 L 29 15 L 29 14 L 28 14 L 4 14 L 3 14 z M 5 16 L 27 16 L 27 24 L 5 24 L 5 16 z M 7 18 L 7 22 L 11 22 L 11 18 L 7 18 z M 14 18 L 14 22 L 18 22 L 18 18 L 14 18 z M 21 18 L 21 22 L 25 22 L 25 18 L 21 18 z" color="#000" overflow="visible" font-family="Sans" fill="#000000"/></svg>
