<?xml version="1.0" encoding="utf-8"?>
<!-- Generator: Adobe Illustrator 21.0.2, SVG Export Plug-In . SVG Version: 6.00 Build 0)  -->
<svg version="1.1" id="Layer_1" xmlns="http://www.w3.org/2000/svg" xmlns:xlink="http://www.w3.org/1999/xlink" x="0px" y="0px"
	 viewBox="0 0 32 32" style="enable-background:new 0 0 32 32;" xml:space="preserve">
<g id="Html-5_000000" transform="translate(274.000000, 221.000000)">
	<path id="Shape" d="M-242.8-213.4h-21.5l2.4,21.6l8.4,2.4l8.4-2.4L-242.8-213.4z M-247.8-206.1h-9.1l0.2,2.6h8.7l-0.7,7.7l-4.9,1.6
		l0,0l-4.8-1.5l-0.3-3.1h2.4l0.1,1.2l2.7,0.6l2.7-0.6l0.3-3.3h-8.3l-0.6-7.6h11.9L-247.8-206.1z"/>
</g>
<path d="M10.9,27.6l-0.7-4.4c0,0-9.3-5.1-2.9-15.4c0,0,6.2-7.2,14.3-1h5.7c0,0-3.6-6.4-12.1-6.4S1.4,6.8,1.3,12.8
	S1.8,23.2,10.9,27.6z"/>
</svg>
