<?xml version="1.0" encoding="utf-8"?>
<svg xmlns="http://www.w3.org/2000/svg" viewBox="0 0 32 32" fill="#000000"><path style="text-indent:0;text-align:start;line-height:normal;text-transform:none;block-progression:tb;-inkscape-font-specification:Sans" d="M 3 6 L 3 7 L 3 25 L 3 26 L 4 26 L 28 26 L 29 26 L 29 25 L 29 7 L 29 6 L 28 6 L 4 6 L 3 6 z M 5 8 L 27 8 L 27 21.5625 L 19.21875 13.78125 L 18.5 13.09375 L 17.78125 13.78125 L 15.5 16.0625 L 11.71875 12.28125 L 11 11.59375 L 10.28125 12.28125 L 5 17.5625 L 5 8 z M 22.5 9 C 21.131133 9 20 10.131133 20 11.5 C 20 12.868867 21.131133 14 22.5 14 C 23.868867 14 25 12.868867 25 11.5 C 25 10.131133 23.868867 9 22.5 9 z M 22.5 11 C 22.787987 11 23 11.212013 23 11.5 C 23 11.787987 22.787987 12 22.5 12 C 22.212013 12 22 11.787987 22 11.5 C 22 11.212013 22.212013 11 22.5 11 z M 11 14.4375 L 14.0625 17.5 L 7.5625 24 L 5 24 L 5 20.4375 L 11 14.4375 z M 18.5 15.9375 L 26.5625 24 L 10.4375 24 L 18.5 15.9375 z" color="#000" overflow="visible" font-family="Sans" fill="#000000"/></svg>
