<?xml version="1.0" encoding="utf-8"?>
<svg xmlns="http://www.w3.org/2000/svg" viewBox="0 0 32 32" fill="#000000"><path style="text-indent:0;text-align:start;line-height:normal;text-transform:none;block-progression:tb;-inkscape-font-specification:Sans" d="M 12 3 C 9.791 3 8 4.791 8 7 C 8 8.0111633 8.3797854 8.9245359 9 9.625 L 9 15.65625 L 6.90625 18.34375 C 5.6284988 19.99617 5.7148054 22.368579 7.09375 23.9375 L 9.46875 26.625 C 10.797234 28.137769 12.705767 29 14.71875 29 L 20 29 C 23.854334 29 27 25.854334 27 22 L 27 15 C 27 13.35503 25.64497 12 24 12 C 23.466433 12 22.967459 12.157469 22.53125 12.40625 C 21.997679 11.562665 21.062474 11 20 11 C 19.466433 11 18.967459 11.157469 18.53125 11.40625 C 17.997679 10.562665 17.062474 10 16 10 C 15.647017 10 15.315758 10.073236 15 10.1875 L 15 9.625 C 15.617393 8.9251008 16 8.0085833 16 7 C 16 4.791 14.209 3 12 3 z M 12 6 C 12.55 6 13 6.45 13 7 L 13 10.84375 L 13 13 L 13 15 L 13 16 L 15 16 L 15 13 C 15 12.43497 15.43497 12 16 12 C 16.56503 12 17 12.43497 17 13 L 17 16 L 19 16 L 19 14 C 19 13.43497 19.43497 13 20 13 C 20.56503 13 21 13.43497 21 14 L 21 16 L 23 16 L 23 15 C 23 14.43497 23.43497 14 24 14 C 24.56503 14 25 14.43497 25 15 L 25 22 C 25 24.773666 22.773666 27 20 27 L 14.71875 27 C 13.279733 27 11.918266 26.393731 10.96875 25.3125 L 8.59375 22.59375 C 7.8386946 21.734671 7.7997512 20.49933 8.5 19.59375 L 9 18.9375 L 9 20 L 11 20 L 11 16.34375 L 11 16 L 11 10.84375 L 11 7 C 11 6.8693572 11.019762 6.7379679 11.0625 6.625 C 11.065786 6.6172656 11.059026 6.6013848 11.0625 6.59375 C 11.112107 6.4735142 11.191564 6.3709356 11.28125 6.28125 C 11.4625 6.1 11.725 6 12 6 z" color="#000" overflow="visible" font-family="Sans" fill="#000000"/></svg>
