<?xml version="1.0" encoding="utf-8"?>
<svg xmlns="http://www.w3.org/2000/svg" viewBox="0 0 32 32" fill="#000000"><path style="text-indent:0;text-align:start;line-height:normal;text-transform:none;block-progression:tb;-inkscape-font-specification:Bitstream Vera Sans" d="M 4 4 L 4 5 L 4 27 L 4 28 L 5 28 L 27 28 L 28 28 L 28 27 L 28 5 L 28 4 L 27 4 L 5 4 L 4 4 z M 6 6 L 15 6 L 15 17 L 6 17 L 6 6 z M 17 6 L 26 6 L 26 13 L 17 13 L 17 6 z M 17 15 L 26 15 L 26 26 L 17 26 L 17 15 z M 6 19 L 15 19 L 15 26 L 6 26 L 6 19 z" color="#000" overflow="visible" font-family="Bitstream Vera Sans" fill="#000000"/></svg>
