<?xml version="1.0" encoding="utf-8"?>
<svg xmlns="http://www.w3.org/2000/svg" viewBox="0 0 32 32" fill="#000000"><path style="text-indent:0;text-align:start;line-height:normal;text-transform:none;block-progression:tb;-inkscape-font-specification:Sans" d="M 9 4 C 7.3550302 4 6 5.3550302 6 7 L 6 21 L 6 25 C 6 26.64497 7.3550302 28 9 28 L 25 28 L 26 28 L 26 27 L 26 5 L 26 4 L 25 4 L 9 4 z M 9 6 L 24 6 L 24 18 L 9 18 C 8.6470169 18 8.3157581 18.073236 8 18.1875 L 8 7 C 8 6.4349698 8.4349698 6 9 6 z M 11 9 L 11 11 L 22 11 L 22 9 L 11 9 z M 9 20 L 24 20 L 24 22 L 9 22 C 8.4349698 22 8 21.56503 8 21 C 8 20.43497 8.4349698 20 9 20 z M 9 24 L 24 24 L 24 26 L 9 26 C 8.4349698 26 8 25.56503 8 25 C 8 24.43497 8.4349698 24 9 24 z" color="#000" overflow="visible" font-family="Sans" fill="#000000"/></svg>
