<?xml version="1.0" encoding="UTF-8"?>
<svg xmlns="http://www.w3.org/2000/svg" xmlns:xlink="http://www.w3.org/1999/xlink" viewBox="0 0 32 32" version="1.1" fill="#000000"><g id="surface1" fill="#000000"><path style=" " d="M 5.40625 5.40625 C -0.441406 11.253906 -0.441406 20.746094 5.40625 26.59375 L 6.8125 25.1875 C 1.726563 20.101563 1.726563 11.898438 6.8125 6.8125 Z M 26.59375 5.40625 L 25.1875 6.8125 C 30.273438 11.898438 30.273438 20.101563 25.1875 25.1875 L 26.59375 26.59375 C 32.441406 20.746094 32.441406 11.253906 26.59375 5.40625 Z M 9.625 9.625 C 6.117188 13.132813 6.117188 18.867188 9.625 22.375 L 11.0625 20.9375 C 8.320313 18.195313 8.320313 13.804688 11.0625 11.0625 Z M 22.375 9.625 L 20.9375 11.0625 C 23.679688 13.804688 23.679688 18.195313 20.9375 20.9375 L 22.375 22.375 C 25.882813 18.867188 25.882813 13.132813 22.375 9.625 Z M 16 13 C 14.355469 13 13 14.355469 13 16 C 13 17.644531 14.355469 19 16 19 C 17.644531 19 19 17.644531 19 16 C 19 14.355469 17.644531 13 16 13 Z M 16 15 C 16.5625 15 17 15.4375 17 16 C 17 16.5625 16.5625 17 16 17 C 15.4375 17 15 16.5625 15 16 C 15 15.4375 15.4375 15 16 15 Z " fill="#000000"/></g></svg>
