<?xml version="1.0" encoding="utf-8"?>
<svg xmlns="http://www.w3.org/2000/svg" viewBox="0 0 50 50" fill="#000000"><path style="line-height:normal;text-indent:0;text-align:start;text-decoration-line:none;text-decoration-style:solid;text-decoration-color:#000;text-transform:none;block-progression:tb;isolation:auto;mix-blend-mode:normal" d="M 25.007812 2.0019531 C 15.528935 2.0019531 7.3752764 7.7656545 3.8671875 15.990234 A 2.0002 2.0002 0 0 0 3.7792969 16.173828 C 3.7739805 16.186665 3.7709165 16.200049 3.765625 16.212891 C 3.6544926 16.481393 3.5601203 16.757722 3.4589844 17.03125 C 3.3754854 17.257414 3.2812793 17.481828 3.2050781 17.708984 A 2.0002054 2.0002054 0 0 0 3.1738281 17.816406 C 3.1495735 17.890225 3.1192279 17.961009 3.0957031 18.035156 A 2.0002 2.0002 0 1 0 6.9082031 19.244141 C 6.9815326 19.013015 7.0724762 18.789711 7.1542969 18.5625 C 7.2576577 18.276821 7.3588794 17.991248 7.4765625 17.707031 C 7.4767979 17.706463 7.476327 17.705647 7.4765625 17.705078 C 10.332 10.837992 17.088663 6.0019531 25.007812 6.0019531 C 35.178925 6.0019531 43.443056 13.957111 43.964844 23.996094 A 2.0007267 2.0007267 0 1 0 47.960938 23.789062 C 47.330725 11.664046 37.272701 2.0019531 25.007812 2.0019531 z M 3.6757812 24.261719 L 2.328125 25.224609 L 2.0644531 26.339844 L 2.0957031 26.882812 L 2.0996094 26.9375 L 2.1054688 26.990234 L 2.2304688 28.109375 L 2.2363281 28.162109 L 2.2460938 28.214844 L 2.4296875 29.320312 L 2.4394531 29.373047 L 2.4511719 29.425781 L 2.4960938 29.626953 L 3.4902344 30.949219 L 5.1425781 31.068359 L 6.3183594 29.902344 L 6.4003906 28.757812 L 6.3652344 28.597656 L 6.1972656 27.585938 L 6.0878906 26.605469 L 6.0566406 26.107422 L 5.2851562 24.642578 L 3.6757812 24.261719 z M 7.734375 34.550781 L 6.1523438 35.039062 L 5.4785156 36.550781 L 5.8164062 37.646484 L 6.2304688 38.267578 L 6.2617188 38.3125 L 6.2929688 38.355469 L 6.9667969 39.253906 L 6.9980469 39.296875 L 7.0332031 39.337891 L 7.7558594 40.201172 L 9.2480469 40.917969 L 10.769531 40.265625 L 11.277344 38.689453 L 10.824219 37.636719 L 10.134766 36.8125 L 9.5273438 36.001953 L 9.140625 35.423828 L 7.734375 34.550781 z M 39.667969 37.988281 A 2.0002 2.0002 0 0 0 38.289062 38.580078 C 38.18504 38.682367 38.075762 38.787175 37.960938 38.894531 A 2.0002 2.0002 0 1 0 40.691406 41.816406 C 40.822581 41.693763 40.957773 41.567304 41.09375 41.433594 A 2.0002 2.0002 0 0 0 39.667969 37.988281 z M 15.525391 41.751953 A 2.0002 2.0002 0 0 0 14.691406 45.550781 C 15.13413 45.773642 15.587916 45.977256 16.046875 46.171875 A 2.0002 2.0002 0 0 0 16.048828 46.173828 A 2.0002 2.0002 0 0 0 16.175781 46.230469 C 16.179277 46.231926 16.18205 46.234872 16.185547 46.236328 A 2.0002253 2.0002253 0 0 0 16.236328 46.255859 C 16.391941 46.320667 16.546166 46.381719 16.695312 46.439453 A 2.000333 2.000333 0 0 0 18.140625 42.708984 C 17.999578 42.654384 17.863253 42.600143 17.732422 42.544922 A 2.0002 2.0002 0 0 0 17.701172 42.533203 C 17.284856 42.359314 16.881179 42.175311 16.490234 41.978516 A 2.0002 2.0002 0 0 0 15.525391 41.751953 z M 33.662109 42.326172 L 32.521484 42.443359 L 32.066406 42.632812 L 32.052734 42.638672 L 31.769531 42.740234 L 30.583984 43.894531 L 30.675781 45.548828 L 31.982422 46.566406 L 33.126953 46.501953 L 33.5 46.367188 L 33.544922 46.351562 L 33.587891 46.332031 L 34.058594 46.138672 L 35.185547 44.925781 L 35.015625 43.279297 L 33.662109 42.326172 z M 24.503906 43.982422 L 22.986328 44.646484 L 22.490234 46.226562 L 23.353516 47.638672 L 24.447266 47.982422 L 25.351562 47.994141 L 26.869141 47.330078 L 27.365234 45.751953 L 26.501953 44.337891 L 25.408203 43.994141 L 24.503906 43.982422 z" font-weight="400" font-family="sans-serif" white-space="normal" overflow="visible" fill="#000000"/></svg>
