<?xml version="1.0" encoding="utf-8"?>
<svg xmlns="http://www.w3.org/2000/svg" viewBox="0 0 32 32" fill="#000000"><path d="M 16 4 C 9.383 4 4 9.383 4 16 C 4 22.617 9.383 28 16 28 C 22.383 28 27.60775 22.9825 27.96875 16.6875 C 26.78675 18.8165 25.2705 20.70625 23.9375 22.03125 C 22.7365 23.60525 21.1015 24.82475 19.1875 25.46875 C 19.6755 24.52875 20.05075 23.37175 20.34375 22.09375 C 19.77775 21.52275 19.1195 20.822 18.4375 20 L 13.28125 20 C 13.14325 19.083 13.06825 18.079 13.03125 17 L 16.28125 17 C 15.88925 16.359 15.53675 15.693 15.21875 15 L 13.03125 15 C 13.06825 13.921 13.14325 12.917 13.28125 12 L 14.21875 12 C 14.08475 11.34 14 10.673 14 10 L 13.6875 10 C 13.8265 9.45 13.99225 8.947 14.15625 8.5 C 14.49025 6.733 15.3955 5.18225 16.6875 4.03125 C 16.4575 4.01825 16.232 4 16 4 z M 22 4 C 18.698375 4 16 6.6983746 16 10 C 16 10.992073 16.382292 12.003547 16.875 13.125 C 17.367708 14.246453 17.988373 15.433769 18.625 16.53125 C 19.898254 18.726212 21.1875 20.5625 21.1875 20.5625 L 22 21.75 L 22.8125 20.5625 C 22.8125 20.5625 24.101746 18.726212 25.375 16.53125 C 26.011627 15.433769 26.632292 14.246453 27.125 13.125 C 27.617708 12.003547 28 10.992073 28 10 C 28 6.6983746 25.301625 4 22 4 z M 22 6 C 24.220375 6 26 7.7796254 26 10 C 26 10.388427 25.757292 11.30011 25.3125 12.3125 C 24.867708 13.32489 24.238373 14.473856 23.625 15.53125 C 22.809524 16.93705 22.456405 17.438627 22 18.125 C 21.543595 17.438627 21.190476 16.93705 20.375 15.53125 C 19.761627 14.473856 19.132292 13.32489 18.6875 12.3125 C 18.242708 11.30011 18 10.388427 18 10 C 18 7.7796254 19.779625 6 22 6 z M 12.8125 6.53125 C 12.3115 7.49725 11.92 8.68 11.625 10 L 8.03125 10 C 9.23525 8.403 10.8795 7.18125 12.8125 6.53125 z M 22 8.5 C 21.171573 8.5 20.5 9.1715729 20.5 10 C 20.5 10.828427 21.171573 11.5 22 11.5 C 22.828427 11.5 23.5 10.828427 23.5 10 C 23.5 9.1715729 22.828427 8.5 22 8.5 z M 6.84375 12 L 11.28125 12 C 11.14925 12.973 11.06425 13.981 11.03125 15 L 6.0625 15 C 6.1675 13.943 6.43375 12.935 6.84375 12 z M 6.0625 17 L 11.03125 17 C 11.06425 18.019 11.14825 19.027 11.28125 20 L 6.84375 20 C 6.43375 19.065 6.1675 18.058 6.0625 17 z M 8.03125 22 L 11.625 22 C 11.92 23.32 12.3105 24.50275 12.8125 25.46875 C 10.8785 24.81875 9.23525 23.597 8.03125 22 z M 13.6875 22 L 18.3125 22 C 17.6775 24.515 16.727 26 16 26 C 15.273 26 14.3215 24.515 13.6875 22 z" fill="#000000"/></svg>
