<?xml version="1.0" encoding="utf-8"?>
<svg xmlns="http://www.w3.org/2000/svg" viewBox="0 0 32 32" fill="#000000"><path d="M 9 4 C 7.8954305 4 7 4.8954305 7 6 C 7 7.1045695 7.8954305 8 9 8 C 9.0211168 8 9.0415409 8.0006497 9.0625 8 L 10.875 11.0625 L 9.3125 15 L 6.71875 15 C 6.3727074 14.403104 5.7396043 14 5 14 C 3.8954305 14 3 14.895431 3 16 C 3 17.104569 3.8954305 18 5 18 C 5.7396043 18 6.3727074 17.596896 6.71875 17 L 9.3125 17 L 10.875 20.9375 L 9.0625 24 C 9.0415409 23.99935 9.0211168 24 9 24 C 7.8954305 24 7 24.895431 7 26 C 7 27.104569 7.8954305 28 9 28 C 10.104569 28 11 27.104569 11 26 C 11 25.644709 10.881198 25.320426 10.71875 25.03125 L 12.53125 22 L 19.4375 22 L 20.9375 24.53125 L 22.65625 23.5 L 21.125 20.9375 L 22.6875 17 L 25.28125 17 C 25.627293 17.596896 26.260396 18 27 18 C 28.104569 18 29 17.104569 29 16 C 29 14.895431 28.104569 14 27 14 C 26.260396 14 25.627293 14.403104 25.28125 15 L 22.6875 15 L 21.125 11.0625 L 22.9375 8 C 22.958459 8.0006497 22.978883 8 23 8 C 23.739604 8 24.372707 7.5968956 24.71875 7 L 29 7 L 29 5 L 24.71875 5 C 24.372707 4.4031044 23.739604 4 23 4 C 21.895431 4 21 4.8954305 21 6 C 21 6.3649652 21.110492 6.7054558 21.28125 7 L 19.46875 10 L 12.53125 10 L 10.71875 7 C 10.889508 6.7054558 11 6.3649652 11 6 C 11 4.8954305 10.104569 4 9 4 z M 12.6875 12 L 19.3125 12 L 20.90625 16 L 19.3125 20 L 12.6875 20 L 11.09375 16 L 12.6875 12 z" fill="#000000"/></svg>
