<?xml version="1.0" encoding="utf-8"?>
<svg xmlns="http://www.w3.org/2000/svg" viewBox="0 0 32 32" fill="#000000"><path style="text-indent:0;text-align:start;line-height:normal;text-transform:none;block-progression:tb;-inkscape-font-specification:Bitstream Vera Sans" d="M 5 5 L 5 7 L 3 7 L 3 9 L 5 9 L 5 11 L 7 11 L 7 9 L 9 9 L 9 7 L 7 7 L 7 5 L 5 5 z M 20.28125 7.9375 L 18.625 8 C 13.27972 8.1918932 9 12.578915 9 17.96875 C 9 23.480084 13.488666 27.96875 19 27.96875 C 24.389835 27.96875 28.776857 23.68903 28.96875 18.34375 L 29.03125 16.71875 L 27.5625 17.40625 C 26.779816 17.775587 25.914962 17.96875 25 17.96875 C 21.674438 17.96875 19 15.294312 19 11.96875 C 19 11.053788 19.224413 10.220184 19.59375 9.4375 L 20.28125 7.9375 z M 17.375 10.3125 C 17.250221 10.868632 17 11.374443 17 11.96875 C 17 16.375188 20.593562 19.96875 25 19.96875 C 25.606168 19.96875 26.121185 19.723366 26.6875 19.59375 C 25.925623 23.219693 22.858494 25.96875 19 25.96875 C 14.569334 25.96875 11 22.399416 11 17.96875 C 11 14.117292 13.759004 11.081847 17.375 10.3125 z" color="#000" overflow="visible" font-family="Bitstream Vera Sans" fill="#000000"/></svg>
