<?xml version="1.0" encoding="utf-8"?>
<svg xmlns="http://www.w3.org/2000/svg" viewBox="0 0 32 32" fill="#000000"><path style="line-height:normal;text-indent:0;text-align:start;text-decoration-line:none;text-decoration-style:solid;text-decoration-color:#000;text-transform:none;block-progression:tb;isolation:auto;mix-blend-mode:normal" d="M 5 5 L 5 27 L 16 27 L 16 25 L 7 25 L 7 7 L 25 7 L 25 16 L 27 16 L 27 5 L 5 5 z M 9 9 L 9 10 L 9 14 L 23 14 L 23 9 L 9 9 z M 11 11 L 21 11 L 21 12 L 11 12 L 11 11 z M 9 16 L 9 17 L 9 23 L 15 23 L 15 16 L 9 16 z M 23 16 L 21 18 L 18 18 L 18 21 L 16 23 L 18 25 L 18 28 L 21 28 L 23 30 L 25 28 L 28 28 L 28 25 L 30 23 L 28 21 L 28 18 L 25 18 L 23 16 z M 11 18 L 13 18 L 13 21 L 11 21 L 11 18 z M 23 19 L 24 20 L 26 20 L 26 22 L 27 23 L 26 24 L 26 26 L 24 26 L 23 27 L 22 26 L 20 26 L 20 24 L 18.914062 23 L 20 22 L 20 20 L 22 20 L 23 19 z" font-weight="400" font-family="sans-serif" white-space="normal" overflow="visible" fill="#000000"/></svg>
