<?xml version="1.0" encoding="utf-8"?>
<svg xmlns="http://www.w3.org/2000/svg" viewBox="0 0 32 32" fill="#000000"><path style="text-indent:0;text-align:start;line-height:normal;text-transform:none;block-progression:tb;-inkscape-font-specification:Bitstream Vera Sans" d="M 20.875 4 C 18.245937 4 16.502899 5.3190878 15.375 6.75 C 14.247101 8.1809122 13.540236 9.7097645 12.84375 10.40625 C 12.570185 10.679815 11.873445 11.099253 11 11.53125 C 10.126555 11.963247 9.0847888 12.424598 8.0625 13.0625 C 6.0179224 14.338304 4 16.393672 4 19.65625 C 4 24.23475 7.7652504 28 12.34375 28 C 15.679237 28 19.531601 26.643967 22.625 23.84375 C 25.718399 21.043533 28 16.768154 28 11.125 C 28 7.1791348 24.820865 4 20.875 4 z M 20.875 6 C 21.478778 6 22.062308 6.1020118 22.59375 6.28125 L 22.09375 7.6875 C 22.19575 7.7215 22.30825 7.7695 22.40625 7.8125 L 23 6.46875 C 23.560166 6.7145673 24.073376 7.0183914 24.5 7.4375 L 23.4375 8.53125 C 23.5125 8.60625 23.58725 8.668 23.65625 8.75 L 24.8125 7.78125 C 25.203117 8.2444661 25.482725 8.7833657 25.6875 9.375 L 24.28125 9.875 C 24.31625 9.976 24.349 10.05125 24.375 10.15625 L 25.84375 9.8125 C 25.94655 10.226623 26 10.672166 26 11.125 C 26 11.298419 25.973316 11.454935 25.96875 11.625 L 24.5 11.59375 C 24.496 11.74375 24.47675 11.9155 24.46875 12.0625 L 25.9375 12.125 C 25.901112 12.796873 25.854736 13.443901 25.75 14.0625 L 24.28125 13.8125 C 24.25625 13.9585 24.2165 14.108 24.1875 14.25 L 25.6875 14.53125 C 25.557025 15.185721 25.35656 15.811957 25.15625 16.40625 L 23.75 15.9375 C 23.703 16.0755 23.64375 16.20975 23.59375 16.34375 L 25 16.84375 C 24.764326 17.473578 24.49287 18.063677 24.1875 18.625 L 22.875 17.90625 C 22.806 18.03325 22.72825 18.15825 22.65625 18.28125 L 23.96875 19.0625 C 23.640578 19.618637 23.261701 20.13744 22.875 20.625 L 21.6875 19.6875 C 21.5975 19.8005 21.49925 19.92225 21.40625 20.03125 L 22.5625 21 C 22.152931 21.481088 21.736809 21.931367 21.28125 22.34375 C 21.264473 22.358937 21.235584 22.359909 21.21875 22.375 L 20.21875 21.25 C 20.11075 21.347 19.986 21.4705 19.875 21.5625 L 20.84375 22.71875 C 20.341523 23.13778 19.818336 23.505769 19.28125 23.84375 L 18.46875 22.5625 C 18.34575 22.6405 18.249 22.70825 18.125 22.78125 L 18.875 24.09375 C 18.307475 24.425464 17.738786 24.724607 17.15625 24.96875 L 16.5625 23.5625 C 16.4285 23.6185 16.29025 23.698 16.15625 23.75 L 16.6875 25.15625 C 16.072262 25.389083 15.448509 25.551044 14.84375 25.6875 L 14.53125 24.25 C 14.39225 24.282 14.23075 24.2865 14.09375 24.3125 L 14.375 25.8125 C 13.71872 25.934777 13.077604 25.992329 12.46875 26 L 12.4375 24.5 L 12.34375 24.5 C 12.26175 24.5 12.17475 24.504 12.09375 24.5 L 12.03125 26 C 11.396197 25.969119 10.792594 25.831273 10.21875 25.625 L 10.71875 24.21875 C 10.60875 24.17975 10.482 24.14175 10.375 24.09375 L 9.78125 25.4375 C 9.2093038 25.182573 8.6876114 24.841827 8.21875 24.4375 L 9.1875 23.34375 C 9.0985 23.26775 9.0215 23.17675 8.9375 23.09375 L 7.875 24.125 C 7.4373611 23.687361 7.0772934 23.204828 6.78125 22.65625 L 8.09375 21.96875 C 8.03875 21.86375 7.9865 21.76425 7.9375 21.65625 L 6.5625 22.25 C 6.3155389 21.702331 6.1446116 21.115368 6.0625 20.5 L 7.53125 20.28125 C 7.52825 20.17025 7.506 20.0565 7.5 19.9375 L 6.03125 20.03125 C 6.0240408 19.908203 6 19.781015 6 19.65625 C 6 19.123431 6.072271 18.65132 6.1875 18.21875 L 7.625 18.625 C 7.653 18.524 7.713 18.4065 7.75 18.3125 L 6.34375 17.78125 C 6.5691265 17.182508 6.8651093 16.666642 7.28125 16.21875 L 8.40625 17.25 C 8.48525 17.162 8.57125 17.082 8.65625 17 L 7.625 15.90625 C 8.0665505 15.497519 8.5737194 15.125246 9.125 14.78125 L 9.90625 16.03125 C 10.02925 15.95425 10.15625 15.8845 10.28125 15.8125 L 9.53125 14.53125 C 10.10328 14.197054 10.699747 13.914715 11.28125 13.625 L 11.9375 14.96875 L 12.125 14.84375 L 12.40625 14.71875 L 11.71875 13.375 C 11.768304 13.350507 11.825765 13.336851 11.875 13.3125 C 12.471106 13.017672 13.031638 12.715811 13.53125 12.375 L 14.375 13.65625 C 14.582 13.51825 14.7655 13.36075 14.9375 13.21875 L 13.96875 12.0625 C 14.066941 11.980019 14.158965 11.903535 14.25 11.8125 C 14.66795 11.39455 15.017595 10.920743 15.34375 10.4375 L 16.59375 11.25 C 16.68975 11.102 16.81025 10.93425 16.90625 10.78125 L 15.625 10 C 15.991502 9.4274002 16.340578 8.8708978 16.71875 8.34375 L 17.90625 9.21875 C 17.98525 9.10875 18.07225 8.981 18.15625 8.875 L 17 7.96875 C 17.401056 7.4635666 17.805745 7.0230214 18.3125 6.6875 L 19.125 7.96875 C 19.205 7.91775 19.289 7.8565 19.375 7.8125 L 18.6875 6.46875 C 19.160478 6.2262794 19.718449 6.0805597 20.40625 6.03125 L 20.53125 7.5 C 20.64325 7.501 20.754 7.5 20.875 7.5 L 20.875 6 z M 20.5 10 C 19.671573 10 19 10.671573 19 11.5 C 19 12.328427 19.671573 13 20.5 13 C 21.328427 13 22 12.328427 22 11.5 C 22 10.671573 21.328427 10 20.5 10 z M 20 16 C 19.447715 16 19 16.447715 19 17 C 19 17.552285 19.447715 18 20 18 C 20.552285 18 21 17.552285 21 17 C 21 16.447715 20.552285 16 20 16 z M 13 17 C 11.343146 17 10 18.343146 10 20 C 10 21.656854 11.343146 23 13 23 C 14.656854 23 16 21.656854 16 20 C 16 18.343146 14.656854 17 13 17 z" color="#000" overflow="visible" font-family="Bitstream Vera Sans" fill="#000000"/></svg>
