<?xml version="1.0" encoding="utf-8"?>
<svg xmlns="http://www.w3.org/2000/svg" viewBox="0 0 32 32" fill="#000000"><path style="text-indent:0;text-align:start;line-height:normal;text-transform:none;block-progression:tb;-inkscape-font-specification:Bitstream Vera Sans" d="M 15.59375 2.96875 C 15.063061 2.9842624 14.514446 3.0441561 13.96875 3.125 L 13.9375 3.125 C 8.6128319 3.9943336 4.3024331 8.1899527 3.21875 13.5 C 2.8945239 15.013055 2.9143807 16.422966 3.125 17.8125 C 3.132329 17.816668 3.123981 17.836485 3.125 17.84375 C 3.4542647 20.191186 6.4990658 21.219684 8.21875 19.5 C 9.4504652 18.268285 11.268285 18.268285 12.5 19.5 C 13.731715 20.731715 13.731715 22.549535 12.5 23.78125 C 10.780316 25.500934 11.808814 28.545735 14.15625 28.875 C 14.163515 28.876 14.183333 28.867666 14.1875 28.875 C 15.56697 29.084094 16.967863 29.098493 18.46875 28.78125 C 18.47855 28.77945 18.49021 28.78305 18.5 28.78125 C 23.824043 27.790012 28.007609 23.375269 28.875 18.0625 L 28.875 18.03125 C 30.006815 10.3915 24.422934 3.7192609 17.15625 3.03125 C 16.637201 2.9821064 16.124439 2.9532376 15.59375 2.96875 z M 15.625 4.96875 C 16.077368 4.9524753 16.526276 4.9594952 16.96875 5 C 23.163394 5.5670672 27.874435 11.21475 26.90625 17.75 C 26.175235 22.227467 22.586987 25.992951 18.125 26.8125 L 18.09375 26.8125 C 16.817764 27.085926 15.638472 27.091015 14.4375 26.90625 C 13.616056 26.80357 13.23658 25.88842 13.90625 25.21875 C 15.874535 23.250465 15.874535 20.062035 13.90625 18.09375 C 11.937965 16.125465 8.7495348 16.125465 6.78125 18.09375 C 6.1115801 18.76342 5.1964304 18.383944 5.09375 17.5625 C 4.908985 16.361528 4.9140744 15.182236 5.1875 13.90625 C 6.1038169 9.4162973 9.7746681 5.8244164 14.25 5.09375 C 14.716804 5.0245939 15.172632 4.9850247 15.625 4.96875 z M 14 7 C 12.895431 7 12 7.8954305 12 9 C 12 10.104569 12.895431 11 14 11 C 15.104569 11 16 10.104569 16 9 C 16 7.8954305 15.104569 7 14 7 z M 21 9 C 19.895431 9 19 9.8954305 19 11 C 19 12.104569 19.895431 13 21 13 C 22.104569 13 23 12.104569 23 11 C 23 9.8954305 22.104569 9 21 9 z M 9 11 C 7.8954305 11 7 11.895431 7 13 C 7 14.104569 7.8954305 15 9 15 C 10.104569 15 11 14.104569 11 13 C 11 11.895431 10.104569 11 9 11 z M 23 16 C 21.895431 16 21 16.895431 21 18 C 21 19.104569 21.895431 20 23 20 C 24.104569 20 25 19.104569 25 18 C 25 16.895431 24.104569 16 23 16 z M 19 21 C 17.895431 21 17 21.895431 17 23 C 17 24.104569 17.895431 25 19 25 C 20.104569 25 21 24.104569 21 23 C 21 21.895431 20.104569 21 19 21 z" overflow="visible" font-family="Bitstream Vera Sans" fill="#000000"/></svg>
