<?xml version="1.0" encoding="utf-8"?>
<svg xmlns="http://www.w3.org/2000/svg" width="26" height="26" viewBox="0 0 26 26" fill="#000000"><path d="M11.547,9.467c0.085,0.231,0.128,0.519,0.128,0.854c0,0.4-0.046,0.733-0.137,0.99 c-0.088,0.252-0.209,0.45-0.359,0.59c-0.15,0.141-0.325,0.242-0.518,0.3c-0.202,0.061-0.416,0.091-0.636,0.091 c-0.062,0-0.178-0.008-0.349-0.023c-0.115-0.011-0.193-0.021-0.247-0.03V8.612C9.618,8.575,9.85,8.557,10.12,8.557 c0.21,0,0.413,0.03,0.603,0.091c0.183,0.058,0.347,0.153,0.488,0.283C11.351,9.063,11.463,9.242,11.547,9.467z M26,4.875v16.25 C26,23.818,23.818,26,21.125,26H4.875C2.182,26,0,23.818,0,21.125V4.875C0,2.182,2.182,0,4.875,0h16.25C23.818,0,26,2.182,26,4.875z M13.731,12.175c0.203-0.504,0.306-1.122,0.306-1.839c0-0.793-0.123-1.449-0.365-1.95S13.11,7.489,12.72,7.21 c-0.387-0.275-0.832-0.463-1.321-0.557c-0.93-0.177-1.896-0.167-2.861-0.065C8.083,6.635,7.653,6.703,7.261,6.79 C7.204,6.803,7.163,6.854,7.163,6.912V18c0,0.069,0.056,0.125,0.125,0.125h2.016c0.069,0,0.125-0.056,0.125-0.125v-3.709 c0.024,0.003,0.05,0.006,0.078,0.009c0.103,0.012,0.209,0.02,0.319,0.025c0.108,0.005,0.212,0.008,0.31,0.008h0.208 c0.47,0,0.932-0.072,1.374-0.214c0.449-0.144,0.849-0.38,1.191-0.7C13.252,13.098,13.529,12.68,13.731,12.175z M19.236,15.76 c0-0.454-0.076-0.844-0.229-1.158c-0.15-0.313-0.346-0.58-0.579-0.797c-0.231-0.214-0.479-0.396-0.737-0.538 c-0.25-0.139-0.486-0.271-0.71-0.399c-0.216-0.123-0.394-0.249-0.528-0.375c-0.119-0.109-0.177-0.244-0.177-0.412 c0-0.247,0.075-0.531,0.659-0.531c0.265,0,0.539,0.039,0.814,0.115c0.279,0.078,0.521,0.159,0.721,0.243 c0.033,0.015,0.069,0.013,0.102-0.002c0.032-0.016,0.057-0.043,0.066-0.077l0.449-1.472c0.016-0.055-0.006-0.113-0.055-0.143 c-0.255-0.155-0.601-0.287-1.027-0.391c-0.424-0.104-0.881-0.156-1.358-0.156c-0.819,0-1.452,0.217-1.88,0.645 s-0.645,1.039-0.645,1.816c0,0.455,0.076,0.84,0.229,1.144c0.15,0.301,0.346,0.561,0.58,0.773c0.232,0.209,0.479,0.387,0.735,0.528 c0.249,0.138,0.485,0.273,0.708,0.406c0.214,0.128,0.391,0.266,0.525,0.409c0.123,0.133,0.182,0.29,0.182,0.483 c0,0.204-0.061,0.346-0.186,0.434c-0.139,0.097-0.32,0.146-0.537,0.146c-0.307,0-0.603-0.047-0.881-0.139 c-0.282-0.092-0.535-0.201-0.753-0.325c-0.032-0.018-0.071-0.021-0.106-0.009c-0.035,0.014-0.062,0.041-0.074,0.076l-0.527,1.536 c-0.019,0.054,0.002,0.113,0.049,0.145c0.267,0.179,0.621,0.324,1.055,0.434c0.43,0.109,0.874,0.164,1.318,0.164 c0.916,0,1.619-0.238,2.088-0.708C18.998,17.154,19.236,16.527,19.236,15.76z" fill="#000000"/></svg>
