<?xml version="1.0" encoding="utf-8"?>
<svg xmlns="http://www.w3.org/2000/svg" viewBox="0 0 32 32" fill="#000000"><path style="text-indent:0;text-align:start;line-height:normal;text-transform:none;block-progression:tb;-inkscape-font-specification:Bitstream Vera Sans" d="M 8 7 L 8 8 L 8 9 L 5 9 L 4 9 L 4 10 L 4 24 L 4 25 L 5 25 L 27 25 L 28 25 L 28 24 L 28 10 L 28 9 L 27 9 L 24 9 L 24 8 L 24 7 L 23 7 L 19 7 L 18 7 L 18 8 L 18 9 L 14 9 L 14 8 L 14 7 L 13 7 L 9 7 L 8 7 z M 10 9 L 12 9 L 12 10 L 12 11 L 13 11 L 19 11 L 20 11 L 20 10 L 20 9 L 22 9 L 22 10 L 22 11 L 23 11 L 26 11 L 26 23 L 6 23 L 6 11 L 9 11 L 10 11 L 10 10 L 10 9 z" color="#000" overflow="visible" font-family="Bitstream Vera Sans" fill="#000000"/></svg>
