<?xml version="1.0" encoding="utf-8"?>
<svg xmlns="http://www.w3.org/2000/svg" viewBox="0 0 32 32" fill="#000000"><path style="text-indent:0;text-align:start;line-height:normal;text-transform:none;block-progression:tb;-inkscape-font-specification:Sans" d="M 16 4 C 9.3844277 4 4 9.3844277 4 16 C 4 22.615572 9.3844277 28 16 28 C 22.615572 28 28 22.615572 28 16 C 28 9.3844277 22.615572 4 16 4 z M 16 6 C 21.534692 6 26 10.465308 26 16 C 26 21.534692 21.534692 26 16 26 C 10.465308 26 6 21.534692 6 16 C 6 12.724894 7.5765204 9.8538046 10 8.03125 L 10.71875 8.5625 L 16 12.28125 L 16 6 z M 9.5625 10.1875 L 8.4375 11.8125 L 15.3125 16.6875 L 15.71875 17 L 16.21875 16.8125 L 21.34375 14.9375 L 20.65625 13.0625 L 16 14.75 L 9.5625 10.1875 z" overflow="visible" font-family="Sans" fill="#000000"/></svg>
