<?xml version="1.0" encoding="utf-8"?>
<svg xmlns="http://www.w3.org/2000/svg" width="24" height="24" viewBox="0 0 24 24" fill="#000000"><path style="text-indent:0;text-align:start;line-height:normal;text-transform:none;block-progression:tb;-inkscape-font-specification:Bitstream Vera Sans" d="M 2 2 C 0.8954305 2 0 2.8954305 0 4 C 0 4.7396043 0.4031044 5.3727074 1 5.71875 L 1 18.28125 C 0.4031044 18.627293 0 19.260396 0 20 C 0 21.104569 0.8954305 22 2 22 C 2.7396043 22 3.3727074 21.596896 3.71875 21 L 20.28125 21 C 20.627293 21.596896 21.260396 22 22 22 C 23.104569 22 24 21.104569 24 20 C 24 19.260396 23.596896 18.627293 23 18.28125 L 23 5.71875 C 23.596896 5.3727074 24 4.7396043 24 4 C 24 2.8954305 23.104569 2 22 2 C 21.260396 2 20.627293 2.4031044 20.28125 3 L 3.71875 3 C 3.3727074 2.4031044 2.7396043 2 2 2 z M 3.71875 5 L 20.28125 5 C 20.456534 5.3023514 20.697649 5.5434657 21 5.71875 L 21 18.28125 C 20.697649 18.456534 20.456534 18.697649 20.28125 19 L 3.71875 19 C 3.5434657 18.697649 3.3023514 18.456534 3 18.28125 L 3 5.71875 C 3.3023514 5.5434657 3.5434657 5.3023514 3.71875 5 z" color="#000" overflow="visible" enable-background="accumulate" font-family="Bitstream Vera Sans" fill="#000000"/></svg>
