<?xml version="1.0" encoding="utf-8"?>
<svg xmlns="http://www.w3.org/2000/svg" viewBox="0 0 32 32" fill="#000000"><path style="text-indent:0;text-align:start;line-height:normal;text-transform:none;block-progression:tb;-inkscape-font-specification:Sans" d="M 16 4 C 9.3845336 4 4 9.3845336 4 16 C 4 19.070772 5.1568857 21.875947 7.0625 24 L 5 24 L 5 26 L 10 26 L 11 26 L 11 25 L 11 20 L 9 20 L 9 23.125 C 7.1564839 21.312174 6 18.794909 6 16 C 6 10.465466 10.465466 6 16 6 L 16 4 z M 18.25 4.21875 L 17.6875 6.15625 C 18.3485 6.26925 19.003 6.4455 19.625 6.6875 L 20.15625 4.75 C 19.53125 4.518 18.908 4.34275 18.25 4.21875 z M 21 6 L 21 7 L 21 12 L 23 12 L 23 8.875 C 24.846589 10.684947 26 13.201155 26 16 C 26 21.534534 21.534534 26 16 26 L 16 28 C 22.615466 28 28 22.615466 28 16 C 28 12.922528 26.818956 10.122817 24.90625 8 L 27 8 L 27 6 L 22 6 L 21 6 z M 12.375 25.3125 L 11.84375 27.25 C 12.46975 27.482 13.092 27.65725 13.75 27.78125 L 14.3125 25.84375 C 13.6515 25.73075 12.997 25.5555 12.375 25.3125 z" color="#000" overflow="visible" font-family="Sans" fill="#000000"/></svg>
