<?xml version="1.0" encoding="utf-8"?>
<svg xmlns="http://www.w3.org/2000/svg" viewBox="0 0 32 32" fill="#000000"><path d="M 12 3 C 10.9 3 10 3.9 10 5 L 10 10 L 12 10 L 12 5 L 26 5 L 26 27 L 12 27 L 12 20 L 10 22 L 10 27 C 10 28.1 10.9 29 12 29 L 26 29 C 27.1 29 28 28.1 28 27 L 28 5 C 28 3.9 27.1 3 26 3 L 12 3 z M 11 11 C 8.2545455 11 6 13.254545 6 16 L 6 19.0625 L 3.71875 16.78125 L 2.28125 18.21875 L 6.28125 22.21875 L 7 22.90625 L 7.71875 22.21875 L 11.71875 18.21875 L 10.28125 16.78125 L 8 19.0625 L 8 16 C 8 14.345455 9.3454545 13 11 13 L 17 13 L 17 11 L 11 11 z" fill="#000000"/></svg>
