<?xml version="1.0" encoding="utf-8"?>
<svg xmlns="http://www.w3.org/2000/svg" width="26" height="26" viewBox="0 0 26 26" fill="#000000"><path style="text-indent:0;text-align:start;line-height:normal;text-transform:none;block-progression:tb;-inkscape-font-specification:Bitstream Vera Sans" d="M 4 0.0625 L 0.0625 3 L 4 5.9375 L 4 4 L 16 4 L 16 5.9375 L 19.9375 3 L 16 0.0625 L 16 2 L 4 2 L 4 0.0625 z M 2 7 C 0.90691561 7 0 7.9081449 0 9 L 0 24 C 0 25.091879 0.90812116 26 2 26 L 17 26 C 18.091879 26 19 25.091879 19 24 L 19 9 C 19 7.9081449 18.093084 7 17 7 L 2 7 z M 23 7.0625 L 20.0625 11 L 22 11 L 22 22 L 20.0625 22 L 23 25.9375 L 25.9375 22 L 24 22 L 24 11 L 25.9375 11 L 23 7.0625 z M 2 9 L 17 9 L 17 24 L 2 24 L 2 9 z" color="#000" overflow="visible" enable-background="accumulate" font-family="Bitstream Vera Sans" fill="#000000"/></svg>
