<?xml version="1.0" encoding="utf-8"?>
<!-- Generator: Adobe Illustrator 21.0.2, SVG Export Plug-In . SVG Version: 6.00 Build 0)  -->
<svg version="1.1" id="Layer_1" xmlns="http://www.w3.org/2000/svg" xmlns:xlink="http://www.w3.org/1999/xlink" x="0px" y="0px"
	 viewBox="0 0 32 32" style="enable-background:new 0 0 32 32;" xml:space="preserve">
<style type="text/css">
	.st0{fill:#111418;}
</style>
<path class="st0" d="M26.9,3.2L26.9,3.2l-5.5-2.3h-11L4.8,3.2L0.4,8.3l15.4,21l15.4-21L26.9,3.2z M29.9,8.4l-5.6,4.3l-2.6-5.9
	l4.8-2.4L29.9,8.4z M23.2,12.9H8.4l2.6-5.7h9.7L23.2,12.9z M10.5,1.9l10.6,0l4.3,1.8l-4.7,2.3h-9.7L6.2,3.7L10.5,1.9z M5.1,4.4
	L10,6.7l-2.6,5.9L1.7,8.4L5.1,4.4z M3.9,11.3l3.2,2.5l4.1,7.5L3.9,11.3z M15.8,27.5L8.4,13.9h14.9L15.8,27.5z M20.4,21.3l4.1-7.5
	l3.2-2.5L20.4,21.3z"/>
<path class="st0" d="M26.9,2.9L26.9,2.9l-5.5-2.5h-11L4.8,2.9L0.4,8.3L15.8,31L31.2,8.3L26.9,2.9z M29.9,8.4L24.3,13l-2.6-6.3
	l4.8-2.6L29.9,8.4z M23.2,13.3H8.4l2.6-6.2h9.7L23.2,13.3z M10.5,1.5l10.6,0l4.3,2L20.7,6h-9.7L6.2,3.4L10.5,1.5z M5.1,4.1L10,6.7
	L7.3,13L1.7,8.4L5.1,4.1z M3.9,11.6l3.2,2.6l4.1,8.1L3.9,11.6z M15.8,29.1L8.4,14.4h14.9L15.8,29.1z M20.4,22.3l4.1-8.1l3.2-2.6
	L20.4,22.3z"/>
</svg>
