<?xml version="1.0" encoding="UTF-8"?>
<svg xmlns="http://www.w3.org/2000/svg" xmlns:xlink="http://www.w3.org/1999/xlink" viewBox="0 0 26 26" version="1.1" fill="#000000"><g id="surface1" fill="#000000"><path style=" " d="M 25.398438 11.5 L 14.5 0.601563 C 13.699219 -0.199219 12.300781 -0.199219 11.5 0.601563 L 0.601563 11.5 C -0.199219 12.300781 -0.199219 13.699219 0.601563 14.5 L 11.5 25.398438 C 12.300781 26.199219 13.699219 26.199219 14.5 25.398438 L 25.398438 14.5 C 26.199219 13.699219 26.199219 12.300781 25.398438 11.5 Z M 14.101563 18.601563 C 13.800781 18.898438 13.398438 19 13 19 C 12.601563 19 12.199219 18.898438 11.898438 18.601563 C 11.601563 18.300781 11.5 18 11.5 17.5 C 11.5 17.101563 11.601563 16.699219 11.898438 16.398438 C 12.199219 16.101563 12.601563 16 13 16 C 13.398438 16 13.800781 16.101563 14.101563 16.398438 C 14.398438 16.699219 14.5 17.101563 14.5 17.5 C 14.5 17.898438 14.398438 18.300781 14.101563 18.601563 Z M 13.800781 14 L 12.300781 14 C 12.101563 11.699219 11.398438 9.199219 11.398438 8.699219 C 11.398438 8.199219 11.601563 7.800781 11.898438 7.5 C 12.101563 7.199219 12.5 7 13 7 C 13.5 7 13.898438 7.199219 14.199219 7.5 C 14.5 7.800781 14.699219 8.199219 14.699219 8.699219 C 14.601563 9.199219 14 11.699219 13.800781 14 Z " fill="#000000"/></g></svg>
