<?xml version="1.0" encoding="UTF-8"?>
<svg xmlns="http://www.w3.org/2000/svg" xmlns:xlink="http://www.w3.org/1999/xlink" viewBox="0 0 26 26" version="1.1" fill="#000000"><g id="surface1" fill="#000000"><path style=" " d="M 25.800781 12.5 C 25.699219 12.398438 22.898438 9.398438 20.101563 7.5 C 19.898438 7.398438 19.601563 7.300781 19.398438 7.5 C 19.199219 7.601563 19 7.800781 19 8.101563 L 19 11 L 7 11 L 7 8.101563 C 7 7.800781 6.898438 7.601563 6.601563 7.5 C 6.398438 7.398438 6.101563 7.398438 5.898438 7.5 C 3.101563 9.398438 0.300781 12.398438 0.199219 12.5 C 0.101563 12.699219 0 12.898438 0 13 C 0 13.101563 0.101563 13.300781 0.199219 13.398438 C 0.300781 13.5 3.101563 16.5 5.898438 18.398438 C 6.101563 18.5 6.398438 18.601563 6.601563 18.398438 C 6.800781 18.398438 7 18.199219 7 17.898438 L 7 15 L 19 15 L 19 17.898438 C 19 18.199219 19.101563 18.398438 19.398438 18.5 C 19.601563 18.601563 19.898438 18.601563 20.101563 18.5 C 22.898438 16.601563 25.699219 13.601563 25.800781 13.5 C 25.898438 13.398438 26 13.199219 26 13.101563 C 26 13 25.898438 12.699219 25.800781 12.5 Z " fill="#000000"/></g></svg>
