<?xml version="1.0" encoding="UTF-8"?>
<svg xmlns="http://www.w3.org/2000/svg" xmlns:xlink="http://www.w3.org/1999/xlink" viewBox="0 0 50 50" version="1.1" fill="#000000"><g id="surface1" fill="#000000"><path style=" " d="M 24.78125 -0.03125 C 23.75 0.0820313 22.976563 0.964844 23 2 L 23 3.09375 C 12.464844 4.046875 4.046875 12.464844 3.09375 23 L 2 23 C 1.9375 22.996094 1.875 22.996094 1.8125 23 C 0.707031 23.050781 -0.144531 23.988281 -0.09375 25.09375 C -0.0429688 26.199219 0.894531 27.050781 2 27 L 3.09375 27 C 4.046875 37.535156 12.464844 45.953125 23 46.90625 L 23 48 C 22.988281 48.722656 23.367188 49.390625 23.992188 49.753906 C 24.613281 50.121094 25.386719 50.121094 26.007813 49.753906 C 26.632813 49.390625 27.011719 48.722656 27 48 L 27 46.90625 C 37.535156 45.953125 45.953125 37.535156 46.90625 27 L 48 27 C 48.722656 27.011719 49.390625 26.632813 49.753906 26.007813 C 50.121094 25.386719 50.121094 24.613281 49.753906 23.992188 C 49.390625 23.367188 48.722656 22.988281 48 23 L 46.90625 23 C 45.953125 12.464844 37.535156 4.046875 27 3.09375 L 27 2 C 27.007813 1.457031 26.796875 0.9375 26.414063 0.554688 C 26.03125 0.171875 25.511719 -0.0390625 24.96875 -0.03125 C 24.90625 -0.0351563 24.84375 -0.0351563 24.78125 -0.03125 Z M 23 7.125 L 23 8 C 22.988281 8.722656 23.367188 9.390625 23.992188 9.753906 C 24.613281 10.121094 25.386719 10.121094 26.007813 9.753906 C 26.632813 9.390625 27.011719 8.722656 27 8 L 27 7.125 C 35.359375 8.046875 41.953125 14.640625 42.875 23 L 42 23 C 41.9375 22.996094 41.875 22.996094 41.8125 23 C 40.707031 23.050781 39.855469 23.988281 39.90625 25.09375 C 39.957031 26.199219 40.894531 27.050781 42 27 L 42.875 27 C 41.953125 35.359375 35.359375 41.953125 27 42.875 L 27 42 C 27.007813 41.457031 26.796875 40.9375 26.414063 40.554688 C 26.03125 40.171875 25.511719 39.960938 24.96875 39.96875 C 24.90625 39.964844 24.84375 39.964844 24.78125 39.96875 C 23.75 40.082031 22.976563 40.964844 23 42 L 23 42.875 C 14.644531 41.957031 8.046875 35.359375 7.125 27 L 8 27 C 8.722656 27.011719 9.390625 26.632813 9.753906 26.007813 C 10.121094 25.386719 10.121094 24.613281 9.753906 23.992188 C 9.390625 23.367188 8.722656 22.988281 8 23 L 7.125 23 C 8.046875 14.640625 14.644531 8.042969 23 7.125 Z M 25 18 C 21.132813 18 18 21.132813 18 25 C 18 28.867188 21.132813 32 25 32 C 28.867188 32 32 28.867188 32 25 C 32 21.132813 28.867188 18 25 18 Z " fill="#000000"/></g></svg>
