<?xml version="1.0" encoding="UTF-8"?>
<svg xmlns="http://www.w3.org/2000/svg" xmlns:xlink="http://www.w3.org/1999/xlink" viewBox="0 0 26 26" version="1.1" fill="#000000"><g id="surface1" fill="#000000"><path style=" " d="M 12.5 0.199219 C 12.398438 0.300781 9.398438 3.101563 7.5 5.898438 C 7.398438 6.101563 7.300781 6.398438 7.5 6.601563 C 7.601563 6.800781 7.800781 7 8.101563 7 L 11 7 L 11 19 L 8.101563 19 C 7.800781 19 7.601563 19.101563 7.5 19.398438 C 7.398438 19.601563 7.398438 19.898438 7.5 20.101563 C 9.398438 22.898438 12.398438 25.699219 12.5 25.800781 C 12.601563 25.898438 12.800781 26 12.898438 26 C 13 26 13.199219 25.898438 13.300781 25.800781 C 13.398438 25.699219 16.398438 22.898438 18.300781 20.101563 C 18.398438 19.898438 18.5 19.601563 18.300781 19.398438 C 18.199219 19.199219 17.898438 19 17.699219 19 L 15 19 L 15 7 L 17.898438 7 C 18.199219 7 18.398438 6.898438 18.5 6.601563 C 18.601563 6.398438 18.601563 6.101563 18.5 5.898438 C 16.601563 3.101563 13.601563 0.300781 13.5 0.199219 C 13.300781 0.101563 13.101563 0 13 0 C 12.898438 0 12.699219 0.101563 12.5 0.199219 Z " fill="#000000"/></g></svg>
