<?xml version="1.0" encoding="utf-8"?>
<svg xmlns="http://www.w3.org/2000/svg" viewBox="0 0 32 32" fill="#000000"><path style="text-indent:0;text-align:start;line-height:normal;text-transform:none;block-progression:tb;-inkscape-font-specification:Sans" d="M 20 3 C 16.49576 3 13.452398 5.0014337 11.96875 7.9375 C 10.239692 8.8048075 8.8384948 10.23602 7.96875 11.96875 C 5.0282093 13.451933 3 16.490933 3 20 C 3 24.958718 7.0412819 29 12 29 C 15.509067 29 18.548067 26.971791 20.03125 24.03125 C 21.755025 23.160854 23.161653 21.756981 24.03125 20.03125 C 26.974862 18.549942 29 15.509463 29 12 C 29 7.0414839 24.958516 3 20 3 z M 20 5 C 23.877484 5 27 8.1225161 27 12 C 27 13.931815 26.199417 15.670838 24.9375 16.9375 C 24.970529 16.624951 25 16.320964 25 16 C 25 11.041484 20.958516 7 16 7 C 15.683577 7 15.370536 7.0306331 15.0625 7.0625 C 16.328342 5.8004703 18.065828 5 20 5 z M 16 9 C 19.877484 9 23 12.122516 23 16 C 23 17.917266 22.211577 19.64373 20.96875 20.90625 C 20.99956 20.60426 21 20.30992 21 20 C 21 15.041282 16.958718 11 12 11 C 11.69008 11 11.39574 11.00044 11.09375 11.03125 C 12.357984 9.7814441 14.074179 9 16 9 z M 12 13 C 15.877838 13 19 16.122162 19 20 C 19 23.877838 15.877838 27 12 27 C 8.1221621 27 5 23.877838 5 20 C 5 16.122162 8.1221621 13 12 13 z" color="#000" overflow="visible" font-family="Sans" fill="#000000"/></svg>
