<?xml version="1.0" encoding="utf-8"?>
<svg xmlns="http://www.w3.org/2000/svg" viewBox="0 0 32 32" fill="#000000"><path style="text-indent:0;text-align:start;line-height:normal;text-transform:none;block-progression:tb;-inkscape-font-specification:Bitstream Vera Sans" d="M 5 5 L 5 6 L 5 26 L 5 27 L 6 27 L 26 27 L 27 27 L 27 26 L 27 6 L 27 5 L 26 5 L 6 5 L 5 5 z M 7 7 L 25 7 L 25 25 L 7 25 L 7 7 z M 9 9 L 9 10 L 9 13 L 9 14 L 10 14 L 22 14 L 23 14 L 23 13 L 23 10 L 23 9 L 22 9 L 10 9 L 9 9 z M 11 11 L 21 11 L 21 12 L 11 12 L 11 11 z M 9 16 L 9 17 L 9 22 L 9 23 L 10 23 L 14 23 L 15 23 L 15 22 L 15 17 L 15 16 L 14 16 L 10 16 L 9 16 z M 17 16 L 17 17 L 17 22 L 17 23 L 18 23 L 22 23 L 23 23 L 23 22 L 23 17 L 23 16 L 22 16 L 18 16 L 17 16 z M 11 18 L 13 18 L 13 21 L 11 21 L 11 18 z M 19 18 L 21 18 L 21 21 L 19 21 L 19 18 z" color="#000" overflow="visible" font-family="Bitstream Vera Sans" fill="#000000"/></svg>
