<?xml version="1.0" encoding="utf-8"?>
<svg xmlns="http://www.w3.org/2000/svg" viewBox="0 0 32 32" fill="#000000"><path style="text-indent:0;text-align:start;line-height:normal;text-transform:none;block-progression:tb;-inkscape-font-specification:Bitstream Vera Sans" d="M 13 3 L 13 5 L 19 5 L 19 3 L 13 3 z M 24.71875 5.28125 L 23.28125 6.71875 L 24.0625 7.5 L 23.03125 8.5625 C 21.123898 6.974604 18.668748 6 16 6 C 9.9367128 6 5 10.936713 5 17 C 5 23.063287 9.9367128 28 16 28 C 22.063287 28 27 23.063287 27 17 C 27 14.331252 26.025396 11.876102 24.4375 9.96875 L 25.5 8.9375 L 26.28125 9.71875 L 27.71875 8.28125 L 24.71875 5.28125 z M 16 8 C 20.982407 8 25 12.017593 25 17 C 25 21.982407 20.982407 26 16 26 C 11.017593 26 7 21.982407 7 17 C 7 12.017593 11.017593 8 16 8 z M 11.71875 11.28125 L 10.28125 12.71875 L 14.0625 16.5 C 14.021396 16.659759 14 16.827411 14 17 C 14 18.104569 14.895431 19 16 19 C 17.104569 19 18 18.104569 18 17 C 18 15.895431 17.104569 15 16 15 C 15.827411 15 15.659759 15.021396 15.5 15.0625 L 11.71875 11.28125 z" fill="#000000"/></svg>
