<?xml version="1.0" encoding="utf-8"?>
<svg xmlns="http://www.w3.org/2000/svg" viewBox="0 0 32 32" fill="#000000"><path style="text-indent:0;text-align:start;line-height:normal;text-transform:none;block-progression:tb;-inkscape-font-specification:Sans" d="M 5.40625 5.40625 C -0.4429524 11.255452 -0.4429524 20.744548 5.40625 26.59375 L 6.8125 25.1875 C 1.7277024 20.102702 1.7277024 11.897298 6.8125 6.8125 L 5.40625 5.40625 z M 26.59375 5.40625 L 25.1875 6.8125 C 30.272298 11.897298 30.272298 20.102702 25.1875 25.1875 L 26.59375 26.59375 C 32.442952 20.744548 32.442952 11.255452 26.59375 5.40625 z M 9.625 9.625 C 6.118776 13.131224 6.118776 18.868776 9.625 22.375 L 11.0625 20.9375 C 8.320724 18.195724 8.320724 13.804276 11.0625 11.0625 L 9.625 9.625 z M 22.375 9.625 L 20.9375 11.0625 C 23.679276 13.804276 23.679276 18.195724 20.9375 20.9375 L 22.375 22.375 C 25.881224 18.868776 25.881224 13.131224 22.375 9.625 z M 16 13 C 14.35499 13 13 14.35499 13 16 C 13 17.64501 14.35499 19 16 19 C 17.64501 19 19 17.64501 19 16 C 19 14.35499 17.64501 13 16 13 z M 16 15 C 16.564128 15 17 15.435872 17 16 C 17 16.564128 16.564128 17 16 17 C 15.435872 17 15 16.564128 15 16 C 15 15.435872 15.435872 15 16 15 z" color="#000" overflow="visible" font-family="Sans" fill="#000000"/></svg>
