<?xml version="1.0" encoding="UTF-8"?>
<svg xmlns="http://www.w3.org/2000/svg" xmlns:xlink="http://www.w3.org/1999/xlink" viewBox="0 0 32 32" version="1.1" fill="#000000"><g id="surface1" fill="#000000"><path style=" " d="M 9 4.09375 L 2.28125 10.8125 L 3.71875 12.21875 L 8 7.9375 L 8 20 L 10 20 L 10 7.9375 L 14.28125 12.21875 L 15.71875 10.8125 Z M 22 5 L 22 7 L 24 7 L 24 5 Z M 22 9 L 22 11 L 24 11 L 24 9 Z M 22 13 L 22 25.0625 L 17.71875 20.78125 L 16.28125 22.1875 L 23 28.90625 L 29.71875 22.1875 L 28.28125 20.78125 L 24 25.0625 L 24 13 Z M 8 22 L 8 24 L 10 24 L 10 22 Z M 8 26 L 8 28 L 10 28 L 10 26 Z " fill="#000000"/></g></svg>
