<?xml version="1.0" encoding="utf-8"?>
<svg xmlns="http://www.w3.org/2000/svg" viewBox="0 0 32 32" fill="#000000"><path style="text-indent:0;text-align:start;line-height:normal;text-transform:none;block-progression:tb;-inkscape-font-specification:Sans" d="M 11 4 L 11 5 L 11 7 L 8 7 L 7 7 L 7 8 L 7 10 L 4 10 L 3 10 L 3 11 L 3 21 L 3 22 L 4 22 L 7 22 L 7 24 L 7 25 L 8 25 L 11 25 L 11 27 L 11 28 L 12 28 L 28 28 L 29 28 L 29 27 L 29 5 L 29 4 L 28 4 L 12 4 L 11 4 z M 13 6 L 27 6 L 27 26 L 13 26 L 13 6 z M 9 9 L 11 9 L 11 23 L 9 23 L 9 9 z M 5 12 L 7 12 L 7 20 L 5 20 L 5 12 z" color="#000" overflow="visible" font-family="Sans" fill="#000000"/></svg>
