<?xml version="1.0" encoding="utf-8"?>
<svg xmlns="http://www.w3.org/2000/svg" viewBox="0 0 32 32" fill="#000000"><path style="text-indent:0;text-align:start;line-height:normal;text-transform:none;block-progression:tb;-inkscape-font-specification:Bitstream Vera Sans" d="M 4 8 L 4 24 L 6 24 L 6 8 L 4 8 z M 8 8 C 7.4477153 8 7 8.4477153 7 9 C 7 9.5522847 7.4477153 10 8 10 C 8.5522847 10 9 9.5522847 9 9 C 9 8.4477153 8.5522847 8 8 8 z M 12 8 C 11.447715 8 11 8.4477153 11 9 C 11 9.5522847 11.447715 10 12 10 C 12.552285 10 13 9.5522847 13 9 C 13 8.4477153 12.552285 8 12 8 z M 16 8 C 15.447715 8 15 8.4477153 15 9 C 15 9.5522847 15.447715 10 16 10 C 16.552285 10 17 9.5522847 17 9 C 17 8.4477153 16.552285 8 16 8 z M 20 8 C 19.447715 8 19 8.4477153 19 9 C 19 9.5522847 19.447715 10 20 10 C 20.552285 10 21 9.5522847 21 9 C 21 8.4477153 20.552285 8 20 8 z M 24 8 C 23.447715 8 23 8.4477153 23 9 C 23 9.5522847 23.447715 10 24 10 C 24.552285 10 25 9.5522847 25 9 C 25 8.4477153 24.552285 8 24 8 z M 26 8 L 26 24 L 28 24 L 28 8 L 26 8 z M 11 13 L 7 16 L 11 19 L 11 17 L 21 17 L 21 19 L 25 16 L 21 13 L 21 15 L 11 15 L 11 13 z M 8 22 C 7.4477153 22 7 22.447715 7 23 C 7 23.552285 7.4477153 24 8 24 C 8.5522847 24 9 23.552285 9 23 C 9 22.447715 8.5522847 22 8 22 z M 12 22 C 11.447715 22 11 22.447715 11 23 C 11 23.552285 11.447715 24 12 24 C 12.552285 24 13 23.552285 13 23 C 13 22.447715 12.552285 22 12 22 z M 16 22 C 15.447715 22 15 22.447715 15 23 C 15 23.552285 15.447715 24 16 24 C 16.552285 24 17 23.552285 17 23 C 17 22.447715 16.552285 22 16 22 z M 20 22 C 19.447715 22 19 22.447715 19 23 C 19 23.552285 19.447715 24 20 24 C 20.552285 24 21 23.552285 21 23 C 21 22.447715 20.552285 22 20 22 z M 24 22 C 23.447715 22 23 22.447715 23 23 C 23 23.552285 23.447715 24 24 24 C 24.552285 24 25 23.552285 25 23 C 25 22.447715 24.552285 22 24 22 z" fill="#000000"/></svg>
