<?xml version="1.0" encoding="utf-8"?>
<svg xmlns="http://www.w3.org/2000/svg" viewBox="0 0 32 32" fill="#000000"><path style="text-indent:0;text-align:start;line-height:normal;text-transform:none;block-progression:tb;-inkscape-font-specification:Sans" d="M 2 6 L 2 7 L 2 23 L 2 24 L 3 24 L 15 24 L 15 26 L 10 26 L 10 28 L 22 28 L 22 26 L 17 26 L 17 24 L 29 24 L 30 24 L 30 23 L 30 7 L 30 6 L 29 6 L 3 6 L 2 6 z M 4 8 L 28 8 L 28 22 L 4 22 L 4 8 z M 6 10 L 6 11 L 6 19 L 6 20 L 7 20 L 11 20 L 12 20 L 12 19 L 12 11 L 12 10 L 11 10 L 7 10 L 6 10 z M 14 10 L 14 11 L 14 19 L 14 20 L 15 20 L 25 20 L 26 20 L 26 19 L 26 11 L 26 10 L 25 10 L 15 10 L 14 10 z M 8 12 L 10 12 L 10 18 L 8 18 L 8 12 z M 16 12 L 24 12 L 24 18 L 16 18 L 16 12 z" color="#000" overflow="visible" font-family="Sans" fill="#000000"/></svg>
