<?xml version="1.0" encoding="UTF-8"?>
<svg xmlns="http://www.w3.org/2000/svg" xmlns:xlink="http://www.w3.org/1999/xlink" viewBox="0 0 50 50" version="1.1" fill="#000000"><g id="surface1" fill="#000000"><path style=" " d="M 36 3 L 14 3 C 12.347656 3 11 4.347656 11 6 L 11 44 C 11 45.652344 12.347656 47 14 47 L 36 47 C 37.652344 47 39 45.652344 39 44 L 39 6 C 39 4.347656 37.652344 3 36 3 Z M 25 5.5 C 25.554688 5.5 26 5.949219 26 6.5 C 26 7.050781 25.554688 7.5 25 7.5 C 24.449219 7.5 24 7.050781 24 6.5 C 24 5.949219 24.449219 5.5 25 5.5 Z M 28 44 L 22 44 C 21.449219 44 21 43.554688 21 43 C 21 42.445313 21.449219 42 22 42 L 28 42 C 28.554688 42 29 42.445313 29 43 C 29 43.554688 28.554688 44 28 44 Z M 34 40 L 16 40 L 16 9 L 34 9 Z " fill="#000000"/></g></svg>
