<?xml version="1.0" encoding="UTF-8"?>
<svg xmlns="http://www.w3.org/2000/svg" xmlns:xlink="http://www.w3.org/1999/xlink" viewBox="0 0 50 50" version="1.1" fill="#000000"><g id="surface1" fill="#000000"><path style=" " d="M 6.96875 7.9375 C 4.675781 7.9375 2.90625 9.710938 2.90625 12 L 2.90625 33.96875 C 2.90625 34.699219 3.117188 35.382813 3.4375 35.96875 L 1.03125 35.96875 C 0.40625 35.96875 0 36.375 0 37 C 0 39.8125 2.292969 42 5 42 L 45 42 C 47.8125 42 50 39.707031 50 37 C 50 36.480469 49.59375 35.96875 48.96875 35.96875 L 46.5625 35.96875 C 46.882813 35.382813 47.09375 34.699219 47.09375 33.96875 L 47.09375 12 C 47.09375 9.707031 45.320313 7.9375 43.03125 7.9375 Z M 8.03125 12 L 41.96875 12 C 42.59375 12 43.03125 12.40625 43.03125 13.03125 L 43.03125 33.03125 C 43.03125 33.65625 42.59375 34.09375 41.96875 34.09375 L 8.03125 34.09375 C 7.40625 34.09375 6.96875 33.65625 6.96875 33.03125 L 6.96875 13.03125 C 6.96875 12.40625 7.40625 12 8.03125 12 Z M 22.5 19.5 L 22.5 27.3125 L 24.46875 25.53125 L 25.71875 28.46875 L 26.78125 27.9375 L 25.53125 25.125 L 28.21875 24.90625 Z " fill="#000000"/></g></svg>
