<?xml version="1.0" encoding="UTF-8"?>
<svg xmlns="http://www.w3.org/2000/svg" xmlns:xlink="http://www.w3.org/1999/xlink" viewBox="0 0 50 50" version="1.1" fill="#000000"><g id="surface1" fill="#000000"><path style=" " d="M 44 6 L 6 6 C 2.28125 6 0 9.496094 0 12 L 0 38.382813 C 0 41.480469 2.519531 44 5.617188 44 L 44.382813 44 C 47.480469 44 50 41.480469 50 38.382813 L 50 11.847656 C 50 8.785156 47.140625 6 44 6 Z M 4 26.5 C 3.171875 26.5 2.5 25.828125 2.5 25 C 2.5 24.171875 3.171875 23.5 4 23.5 C 4.828125 23.5 5.5 24.171875 5.5 25 C 5.5 25.828125 4.828125 26.5 4 26.5 Z M 44 39 L 7 39 L 7 11 L 44 11 Z " fill="#000000"/></g></svg>
